<svg width="70" height="60" viewBox="0 0 70 60" fill="none" xmlns="http://www.w3.org/2000/svg">
<path d="M69.7691 33.2643L64.2578 8.92853C63.5396 5.75447 61.634 3.02907 59.0321 1.4541C56.4266 -0.116857 53.324 -0.435602 50.5021 0.606345L48.6488 1.28669C47.6292 1.66035 47.0786 2.87506 47.4189 3.99736L48.0339 6.03036C48.3729 7.15266 49.474 7.75935 50.4924 7.3857L52.0941 6.79776C53.4151 6.31295 54.8892 6.31964 56.124 7.02945C57.3745 7.74864 58.2592 8.97942 58.5995 10.4874L63.2734 31.088C60.5767 30.1759 57.2226 29.4193 53.4054 29.4193C49.1799 29.4193 44.4148 30.3594 39.4479 33.0005H30.5545C25.5877 30.3567 20.8226 29.4179 16.5958 29.4179C12.7774 29.4179 9.42326 30.1746 6.72656 31.0866L11.4005 10.4848C11.7396 8.97808 12.6267 7.74596 13.8773 7.02811C15.112 6.3183 16.5849 6.31161 17.9059 6.79642L19.5064 7.38436C20.5248 7.75801 21.6259 7.15133 21.9649 6.02902L22.5799 3.99602C22.9201 2.87372 22.3696 1.65901 21.35 1.28535L19.4967 0.605005C16.6748 -0.436942 13.5722 -0.119536 10.9667 1.45276C8.36476 3.02907 6.4592 5.75313 5.74097 8.92585L0.230903 33.2643C0.0776926 33.9429 0.000152551 34.6395 0 35.3388L0 44.7471C0 53.1711 6.2684 60 14 60H18.5111C25.8368 60 31.9241 53.8474 32.4722 45.8882L32.8283 40.7146H37.1729L37.529 45.8882C38.0759 53.8474 44.1632 60 51.4889 60H56C63.7316 60 70 53.1711 70 44.7485V35.3401C70 34.6397 69.9222 33.9433 69.7691 33.2643ZM24.7163 45.24C24.4769 48.71 21.751 51.4287 18.5111 51.4287H14C10.5693 51.4287 7.77778 48.4314 7.77778 44.7471V39.7195C9.97986 38.8504 13.0545 37.9892 16.5983 37.9892C19.4979 37.9892 22.3417 38.5691 25.0967 39.7195L24.7163 45.24ZM62.2222 44.7485C62.2222 48.4328 59.4307 51.4287 56 51.4287H51.4889C48.2477 51.4287 45.5219 48.71 45.2837 45.24L44.9033 39.7195C47.6583 38.5691 50.5033 37.9892 53.4042 37.9892C56.9431 37.9892 60.0189 38.8517 62.221 39.7209V44.7485H62.2222Z" fill="white"/>
</svg>
