<svg width="598" height="448" viewBox="0 0 598 448" fill="none" xmlns="http://www.w3.org/2000/svg">
<g clip-path="url(#clip0)">
<path opacity="0.1" d="M209.769 439.323C267.379 439.323 314.081 430.852 314.081 420.403C314.081 409.954 267.379 401.483 209.769 401.483C152.158 401.483 105.456 409.954 105.456 420.403C105.456 430.852 152.158 439.323 209.769 439.323Z" fill="#F5CB99"/>
<path opacity="0.1" d="M347.443 63.1798C309.106 61.9094 272.594 50.0562 237.728 37.0914C202.862 24.1266 168.328 9.76666 130.91 2.89861C106.842 -1.5194 79.316 -2.14893 59.9284 10.192C41.2635 22.1019 35.2334 42.604 31.9933 61.6429C29.5528 75.9688 28.1193 91.049 34.801 104.462C39.445 113.774 47.6786 121.601 53.377 130.522C73.203 161.556 59.188 199.826 37.7094 230.128C27.6395 244.341 15.9406 257.918 8.16305 273.033C0.385508 288.147 -3.21005 305.524 3.59604 320.984C10.337 336.297 26.4074 347.776 43.8165 355.857C79.1738 372.276 120.822 376.972 161.463 379.638C251.399 385.524 341.81 382.978 431.983 380.42C465.356 379.479 498.871 378.52 531.699 373.581C549.931 370.836 568.75 366.48 581.989 355.965C598.788 342.62 602.953 320.026 591.692 303.295C572.808 275.222 520.61 268.252 507.395 238.131C500.133 221.548 507.59 203.082 518.152 187.706C540.803 154.716 578.767 125.775 580.763 88.0715C582.137 62.176 563.887 36.2407 535.668 23.9848C506.092 11.1391 465.071 12.7555 443.261 34.0175C420.781 55.8864 381.296 64.3084 347.443 63.1798Z" fill="#F5CB99"/>
<path d="M316.978 205.157L298.834 193.445L307.986 180.401L260.065 176.743L242.846 189.492L221.29 177.923L203.312 179.993L203.099 175.456C202.876 170.726 202.38 166.011 201.612 161.334C201.689 159.916 201.742 158.288 201.737 156.519C201.737 149.061 200.682 139.176 196.05 132.586L197.116 123.409L188.468 113.626C189.857 110.977 191.44 108.426 193.207 105.993C193.503 105.584 193.799 105.187 194.119 104.802C205.344 104.025 214.2 95.1886 214.2 84.3846C214.2 83.8855 214.2 83.3864 214.14 82.893C214.14 82.6945 214.099 82.4903 214.075 82.2918C215.171 82.859 216.279 83.4261 217.386 83.9932C217.594 84.2768 217.831 84.5604 218.091 84.895L218.145 84.9574L218.476 85.3487L218.583 85.4678C218.701 85.6039 218.826 85.7344 218.95 85.8705L219.033 85.9612C219.347 86.2958 219.679 86.6361 220.034 86.9707C220.076 87.0037 220.116 87.0397 220.153 87.0785L220.597 87.4755L220.721 87.5832C221.1 87.9065 221.503 88.2184 221.906 88.5133L222.036 88.6041L222.546 88.9387L222.712 89.0408C222.907 89.1542 223.108 89.2733 223.304 89.3811L223.375 89.4208C223.606 89.5399 223.843 89.6533 224.08 89.761L224.198 89.8064C224.4 89.8896 224.597 89.969 224.791 90.0446L224.974 90.107C225.182 90.1751 225.383 90.2374 225.596 90.2942L225.727 90.3282C225.987 90.3906 226.248 90.4416 226.514 90.4813H226.544C226.795 90.5202 227.048 90.5448 227.302 90.555H227.474C227.701 90.5664 227.928 90.5664 228.155 90.555H228.303C228.587 90.5394 228.87 90.5072 229.15 90.4586C230.476 90.2918 231.748 89.8547 232.882 89.1769C233.171 88.9921 233.427 88.7642 233.64 88.502C234.825 87.0161 233.522 85.3884 233.522 85.3884C233.06 84.3335 230.063 83.5906 230.063 83.5906C230.063 83.5906 220.585 79.8021 220.585 76.7849C220.585 73.7677 218.216 58.1147 193.758 54.5361C193.758 54.5361 177.847 53.6797 173.375 61.8351L173.28 62.7879C171.965 63.5762 170.875 65.1586 169.578 65.6236C169.017 65.7389 168.477 65.9298 167.973 66.1908V66.083C167.823 66.2084 167.7 66.3606 167.611 66.531C167.333 67.0619 167.166 67.64 167.12 68.2325C166.986 68.9562 166.724 69.6526 166.344 70.2912C166.238 70.4726 166.119 70.6469 165.988 70.8129V70.8129L165.888 70.9661C166.575 71.0174 167.266 70.9104 167.902 70.6541C167.801 71.4306 167.602 72.1924 167.309 72.9227C167.686 72.9343 168.058 72.8422 168.381 72.6572C168.705 72.4722 168.966 72.2021 169.134 71.8792V71.8338L169.211 71.7317C169.36 71.4692 169.483 71.1938 169.578 70.9093L169.513 70.9774C169.631 70.6088 169.738 70.2345 169.868 69.8715C169.928 69.667 170.026 69.4748 170.158 69.3043C170.316 69.1517 170.51 69.0368 170.723 68.9689C170.936 68.9009 171.162 68.8818 171.385 68.913L171.142 73.8301H171.248C171.106 74.1878 170.931 74.5331 170.727 74.8623C169.886 76.1667 168.358 77.0571 167.795 78.4863C167.552 79.1756 167.46 79.9052 167.522 80.6301C167.522 81.0555 167.576 81.4865 167.611 81.9118V81.8778C167.694 83.0121 167.718 84.0897 167.078 85.0028C166.64 85.6266 165.935 86.0973 165.692 86.8062C165.625 87.0038 165.595 87.2112 165.603 87.4188C165.651 88.0403 165.786 88.6527 166.006 89.2393C166.009 89.2281 166.009 89.2165 166.006 89.2053C166.154 89.6367 166.188 90.0964 166.107 90.5437C165.84 91.678 164.401 92.6251 164.472 93.7083C164.468 93.8508 164.49 93.9928 164.537 94.128C164.814 94.6571 165.294 95.0634 165.876 95.2623C166.789 95.7595 167.838 95.9809 168.885 95.8975C169.277 95.8296 169.657 95.7053 170.01 95.5288C169.596 96.4419 169.169 97.3437 168.737 98.2001C168.672 98.3362 168.6 98.4723 168.529 98.6084C168.529 98.6084 164.869 96.2661 162.79 101.041C162.183 102.034 161.748 103.114 161.504 104.24C161.4 104.69 161.253 105.131 161.066 105.556C160.143 107.052 158.761 108.24 157.109 108.959C152.868 110.819 135.737 131.276 135.435 136.573C135.287 138.64 134.921 140.689 134.345 142.686C132.996 147.391 132.65 152.307 133.326 157.143C133.538 158.706 133.889 160.248 134.375 161.754C136.193 167.045 137.407 176.919 137.407 176.919L139.374 194.058C139.301 196.423 139.408 198.791 139.694 201.141C137.686 203.336 129.624 212.484 132.704 214.974C135.074 216.936 139.22 216.613 141.548 216.21C139.587 220.855 136.501 228.931 136.092 234.478C135.5 242.684 137.105 253.556 139.646 257.731C142.188 261.905 150.658 272.612 150.658 272.612C150.658 272.612 150.261 287.301 153.288 292.638C156.315 297.975 157.535 309.045 157.535 309.045C157.535 309.045 160.361 318.392 158.945 321.829C157.529 325.265 161.569 328.124 157.328 330.409C153.087 332.695 147.661 384.208 147.661 384.208C147.661 384.208 145.475 417.97 147.661 419.688C147.778 419.77 147.903 419.84 148.034 419.898V431.241C148.034 431.241 146.518 433.623 152.684 434.105C156.908 434.428 168.879 435.16 175.981 435.585L181.484 435.914C181.484 435.914 194.516 438.398 200.273 435.914C206.031 433.43 216.237 433.487 214.721 426.925C214.52 426.032 214.25 425.154 213.915 424.299C212.251 420.227 209.425 419.762 204.218 418.628C203.916 418.565 203.626 418.509 203.36 418.463C197.874 417.55 196.074 419.995 192.999 416.813C190.328 414.062 181.822 410.983 178.925 410.007C178.996 409.803 179.085 409.605 179.156 409.395C178.336 409.262 177.573 408.905 176.959 408.368L184.807 408.845L189.481 409.123C189.481 409.123 200.558 411.238 205.474 409.123C210.391 407.007 219.039 407.064 217.748 401.489C217.578 400.729 217.35 399.982 217.067 399.254C215.651 395.795 213.246 395.415 208.821 394.456C208.566 394.405 208.329 394.354 208.092 394.315C203.431 393.538 201.902 395.613 199.29 392.914C197.051 390.611 189.984 388.031 187.443 387.152C187.443 385.893 185.666 384.1 184.547 382.303C183.232 380.204 185.66 372.86 185.66 372.86L187.046 342.387C187.574 342.162 188.132 342.01 188.705 341.934C188.705 341.934 194.972 336.206 193.556 330.103C193.268 328.257 193.117 326.394 193.106 324.528C195.167 322.696 198.005 319.991 198.81 318.324C200.125 315.607 198.81 302.444 198.81 302.444V252.11L209.295 253.125L218.808 254.061L221.705 254.345L231.218 255.264L253.081 257.379L272.783 253.806L281.307 252.263L298.834 249.087V208.027L316.978 205.157ZM172.676 69.0945L171.456 68.9697C171.858 68.9867 172.285 69.0605 172.676 69.0945Z" fill="url(#paint0_linear)"/>
<path d="M274.453 231.818C268.53 239.934 247.235 235.635 247.235 235.635L230.732 220.849L228.511 218.847L232.237 211.271C232.237 211.271 233.421 211.582 235.453 212.138C246.121 215.104 279.453 224.995 274.453 231.818Z" fill="#EFB7B9"/>
<path opacity="0.1" d="M235.441 212.138C234.713 214.566 232.716 218.201 230.732 220.85L228.511 218.848L232.237 211.271C232.237 211.271 233.433 211.582 235.441 212.138Z" fill="black"/>
<path d="M178.842 126.693C178.842 126.693 163.631 133.153 164.377 149.016C164.914 159.236 166.077 169.416 167.86 179.505C167.86 179.505 164.75 203.376 177.699 209.53C190.648 215.683 202.631 220.742 202.631 220.742C202.631 220.742 222.889 222.829 225.407 223.691C227.924 224.553 235.791 211.373 234.34 209.32C232.888 207.267 214.294 202.962 211.925 199.537C209.556 196.111 204.076 193.996 204.076 193.996C204.076 193.996 198.419 190.718 198.034 187.757C197.649 184.797 199.142 182.591 199.521 181.292C199.9 179.993 200.86 167.454 200.86 167.454C200.86 167.454 207.246 122.82 178.842 126.693Z" fill="#DCE6F2"/>
<path opacity="0.1" d="M188.883 178.853C188.883 178.853 168.014 182.199 170.034 189.192C170.034 189.192 177.61 181.643 188.883 178.853Z" fill="black"/>
<path opacity="0.1" d="M189.042 181.683C189.042 181.683 177.569 190.65 179.814 191.109C182.059 191.568 189.042 181.683 189.042 181.683Z" fill="black"/>
<path opacity="0.1" d="M194.557 184.808C194.557 184.808 191.482 190.836 193.372 190.428C195.261 190.02 194.557 184.808 194.557 184.808Z" fill="black"/>
<path opacity="0.1" d="M236.211 212.779L234.944 212.433C235.305 211.299 235.406 210.38 235.11 209.955C233.658 207.902 215.076 203.603 212.713 200.171C210.349 196.74 204.864 194.63 204.864 194.63C204.864 194.63 199.207 191.352 198.822 188.392C198.437 185.432 199.93 183.225 200.309 181.927C200.688 180.628 201.648 168.083 201.648 168.083C201.648 168.083 208.016 123.455 179.613 127.328C179.613 127.328 164.401 133.794 165.141 149.656C165.679 159.876 166.844 170.057 168.63 180.146C168.63 180.146 165.521 204.017 178.469 210.17C191.418 216.324 203.401 221.382 203.401 221.382C203.401 221.382 223.654 223.464 226.177 224.332C227.131 224.66 228.854 222.965 230.543 220.634L231.502 221.49L248.005 236.27C248.005 236.27 269.3 240.574 275.224 232.459C280.229 225.63 246.903 215.739 236.211 212.779Z" fill="black"/>
<path d="M170.087 67.1549C169.508 67.2634 168.952 67.4688 168.447 67.7617C167.854 68.2324 167.854 69.0378 167.706 69.741C167.532 70.7193 167.127 71.6465 166.521 72.4519C167.196 72.4993 167.872 72.3924 168.494 72.14C168.393 72.9163 168.194 73.678 167.902 74.4086C168.271 74.4176 168.635 74.3244 168.95 74.1403C169.265 73.9562 169.518 73.689 169.679 73.3707C169.992 72.7316 170.24 72.0649 170.419 71.38C170.475 71.1752 170.571 70.9826 170.703 70.8129C171.248 70.1947 172.261 70.4726 173.102 70.552C173.802 70.6085 174.506 70.4848 175.139 70.1936C175.772 69.9024 176.312 69.4544 176.704 68.896C177.598 67.5972 177.652 64.2738 175.519 63.9222C173.292 63.5705 171.906 66.5083 170.087 67.1549Z" fill="#965D7B"/>
<g opacity="0.1">
<path opacity="0.1" d="M168.387 68.4593C168.44 68.1814 168.476 67.8922 168.541 67.6143C167.978 68.085 167.949 68.8847 167.801 69.5936C167.726 70.0026 167.609 70.4035 167.451 70.7902C167.918 70.0785 168.235 69.2869 168.387 68.4593V68.4593Z" fill="black"/>
<path opacity="0.1" d="M168.577 73.144C168.872 72.4143 169.071 71.6523 169.169 70.8755C168.576 71.1145 167.934 71.2212 167.292 71.1874C167.105 71.5863 166.876 71.9663 166.61 72.3217C167.282 72.3715 167.956 72.2664 168.577 72.0154C168.479 72.7922 168.28 73.5543 167.985 74.284C168.354 74.2923 168.717 74.1988 169.032 74.0148C169.347 73.8308 169.601 73.564 169.762 73.2461C169.909 72.9883 170.028 72.7165 170.117 72.4351C169.943 72.6677 169.711 72.8546 169.442 72.9785C169.173 73.1024 168.875 73.1593 168.577 73.144V73.144Z" fill="black"/>
<path opacity="0.1" d="M173.778 69.2874C172.937 69.208 171.918 68.9301 171.373 69.5483C171.243 69.7194 171.147 69.9116 171.088 70.1155C171.035 70.2629 170.988 70.4161 170.946 70.5692C171.509 70.1438 172.421 70.3707 173.185 70.4444C173.885 70.4991 174.588 70.3746 175.22 70.0836C175.853 69.7925 176.394 69.3455 176.787 68.7884C176.966 68.513 177.1 68.2126 177.184 67.8979C176.778 68.3787 176.255 68.7567 175.662 68.999C175.068 69.2413 174.421 69.3403 173.778 69.2874Z" fill="black"/>
</g>
<path d="M187.917 113.995L196.95 124.396L195.772 134.894L184.854 118.532L187.917 113.995Z" fill="#DCE6F2"/>
<path opacity="0.1" d="M196.944 124.396L195.837 134.27L195.766 134.894L185.915 120.126L184.854 118.532L185.163 118.073L187.911 113.995L188.521 114.698L196.944 124.396Z" fill="black"/>
<path d="M201.636 99.9128C198.579 100.752 195.659 103.633 193.118 107.132C191.4 109.547 189.864 112.075 188.521 114.698C187.686 116.297 186.951 117.834 186.341 119.173L185.915 120.126C184.884 122.457 184.31 124.016 184.31 124.016C184.31 124.016 160.912 107.172 164.614 106.038C165.858 105.658 167.493 103.106 169.11 99.8901L169.311 99.4818C170.336 97.4174 171.343 95.1148 172.238 92.9483C174.068 88.4963 175.424 84.6284 175.424 84.6284C175.424 84.6284 210.965 97.3607 201.636 99.9128Z" fill="#EFB7B9"/>
<path d="M215.633 83.6812C215.633 83.6812 221.035 93.039 228.291 91.7629C235.548 90.4868 232.562 86.738 232.562 86.738L215.633 83.6812Z" fill="#444053"/>
<path d="M205.166 407.603C200.38 409.696 189.558 407.603 189.558 407.603L184.997 407.331C179.073 406.968 169.157 406.355 165.651 406.083C160.533 405.68 161.788 403.673 161.788 403.673V391.542L186.62 385.519C186.62 385.519 196.435 388.734 199.124 391.542C201.677 394.218 203.17 392.16 207.725 392.931C207.95 392.971 208.187 393.016 208.436 393.073C212.76 394.02 215.106 394.394 216.492 397.825C216.77 398.546 216.994 399.286 217.161 400.037C218.441 405.561 209.946 405.522 205.166 407.603Z" fill="#A36468"/>
<path opacity="0.1" d="M216.492 397.825C215.602 398.357 214.667 398.817 213.696 399.198C210.438 400.621 207.34 402.356 204.047 403.701C200.753 405.045 197.205 406.003 193.639 405.748C191.773 405.618 189.866 405.181 188.083 405.691C186.98 406.099 185.942 406.65 184.997 407.33C179.073 406.967 169.157 406.355 165.651 406.083C160.533 405.68 161.788 403.672 161.788 403.672V402.254C161.972 402.254 162.179 402.203 162.416 402.186C163.642 402.168 164.863 402.342 166.03 402.702C168.6 403.372 171.159 404.03 173.73 404.687C173.942 403.923 174.313 403.209 174.822 402.587C175.332 401.965 175.968 401.448 176.692 401.069C178.159 400.323 179.806 399.961 181.466 400.02C185.453 400.071 189.226 401.88 193.207 402.062C194.32 402.16 195.44 401.98 196.459 401.54C197.004 401.279 197.483 400.899 198.017 400.61C198.87 400.215 199.771 399.923 200.7 399.742C203.31 399.12 205.873 398.328 208.371 397.371C209.082 397.105 209.911 396.623 209.816 395.897C209.692 394.933 208.11 394.819 207.696 393.935C207.622 393.775 207.589 393.601 207.597 393.427C207.605 393.253 207.655 393.083 207.743 392.931C207.968 392.97 208.205 393.016 208.454 393.072C212.76 394.02 215.106 394.394 216.492 397.825Z" fill="black"/>
<path d="M200.108 434.145C194.48 436.606 181.745 434.145 181.745 434.145L176.384 433.844C169.442 433.419 157.749 432.71 153.62 432.375C147.596 431.899 149.077 429.54 149.077 429.54V415.242L178.297 408.153C178.297 408.153 189.848 411.936 193.011 415.242C196.015 418.39 197.75 415.968 203.135 416.875C203.401 416.921 203.68 416.978 203.97 417.04C209.058 418.174 211.818 418.6 213.447 422.638C213.777 423.485 214.041 424.355 214.235 425.241C215.704 431.74 205.735 431.689 200.108 434.145Z" fill="#A36468"/>
<path opacity="0.1" d="M213.436 422.638C212.389 423.263 211.289 423.804 210.148 424.254C206.316 425.927 202.667 427.969 198.793 429.551C194.919 431.133 190.743 432.256 186.543 431.961C184.351 431.808 182.106 431.281 180.027 431.893C178.724 432.379 177.498 433.036 176.384 433.844C169.442 433.419 157.749 432.71 153.62 432.375C147.596 431.899 149.077 429.54 149.077 429.54V427.872C149.322 427.834 149.569 427.807 149.817 427.793C151.26 427.768 152.698 427.973 154.07 428.4L163.127 430.736C163.38 429.835 163.821 428.992 164.425 428.26C165.029 427.528 165.783 426.921 166.64 426.477C168.367 425.596 170.306 425.169 172.261 425.241C176.953 425.303 181.39 427.43 186.075 427.645C187.38 427.759 188.693 427.55 189.89 427.039C190.535 426.727 191.074 426.279 191.726 425.944C192.728 425.474 193.789 425.131 194.883 424.923C197.938 424.185 200.938 423.253 203.863 422.133C204.698 421.815 205.676 421.248 205.563 420.397C205.415 419.263 203.555 419.127 203.064 418.083C202.981 417.895 202.943 417.691 202.953 417.487C202.964 417.283 203.021 417.084 203.123 416.904C203.389 416.949 203.668 417.006 203.958 417.068C209.046 418.157 211.807 418.6 213.436 422.638Z" fill="black"/>
<path d="M187.372 336.035L185.791 371.669C185.791 371.669 183.421 378.945 184.707 381.026C185.992 383.108 188.16 385.183 187.372 386.414C186.584 387.645 177.107 400.95 174.044 395.846C170.982 390.741 167.961 368.623 167.961 368.623L170.786 341.304L187.372 336.035Z" fill="#444053"/>
<path d="M194.231 247.255L198.626 252.881V301.814C198.626 301.814 199.912 314.858 198.626 317.552C197.341 320.246 190.825 325.634 190.825 325.634L185.346 298.695L186.53 270.196L194.231 247.255Z" fill="#444053"/>
<path opacity="0.1" d="M187.372 336.035L185.791 371.669C185.791 371.669 183.421 378.945 184.707 381.026C185.992 383.108 188.16 385.183 187.372 386.414C186.584 387.645 177.107 400.95 174.044 395.846C170.982 390.741 167.961 368.623 167.961 368.623L170.786 341.304L187.372 336.035Z" fill="black"/>
<path opacity="0.1" d="M194.231 247.255L198.626 252.881V301.814C198.626 301.814 199.912 314.858 198.626 317.552C197.341 320.246 190.825 325.634 190.825 325.634L185.346 298.695L186.53 270.196L194.231 247.255Z" fill="black"/>
<path d="M198.627 226.385V252.853L193.692 273.457C193.692 273.457 192.111 323.178 193.491 329.224C194.871 335.27 188.752 340.947 188.752 340.947C188.752 340.947 185.198 341.327 185.198 343.97C185.198 346.613 179.275 354.178 179.275 354.178L179.47 368.924C179.47 368.924 182.041 396.526 178.09 401.818C174.139 407.109 179.47 407.869 179.47 407.869C174.536 423.369 150.842 419.779 148.703 418.078C146.565 416.376 148.703 382.915 148.703 382.915C148.703 382.915 153.999 331.873 158.145 329.604C162.292 327.335 158.347 324.5 159.727 321.097C161.107 317.694 158.347 308.433 158.347 308.433C158.347 308.433 157.162 297.464 154.2 292.173C151.239 286.881 151.63 272.323 151.63 272.323C151.63 272.323 143.337 261.735 140.873 257.577C138.408 253.42 136.821 242.645 137.413 234.512C137.816 229.016 140.831 221.014 142.744 216.409C143.663 214.203 144.326 212.773 144.326 212.773L144.889 212.915L177.243 221.025L198.627 226.385Z" fill="#444053"/>
<path opacity="0.1" d="M201.636 99.913C198.579 100.752 195.659 103.633 193.118 107.133H192.454C188.729 107.135 185.07 106.196 181.846 104.411C178.621 102.625 175.947 100.056 174.091 96.9638C173.316 95.6824 172.692 94.3224 172.231 92.9088C174.062 88.4568 175.418 84.5889 175.418 84.5889C175.418 84.5889 210.965 97.3608 201.636 99.913Z" fill="black"/>
<path d="M213.63 85.7343C213.636 88.8375 212.897 91.9004 211.471 94.6871C210.045 97.4738 207.97 99.91 205.406 101.808C202.842 103.706 199.857 105.015 196.681 105.634C193.505 106.254 190.223 106.167 187.087 105.381C183.952 104.594 181.047 103.129 178.596 101.099C176.146 99.068 174.214 96.5258 172.951 93.668C171.688 90.8101 171.127 87.7128 171.312 84.6147C171.496 81.5165 172.42 78.5002 174.014 75.7981C174.656 74.7001 175.406 73.6633 176.253 72.7015C177.65 71.1082 179.292 69.7275 181.122 68.6067C184.214 66.7256 187.763 65.6446 191.421 65.4692C195.08 65.2938 198.723 66.0302 201.996 67.6062C205.268 69.1823 208.058 71.5442 210.092 74.4611C212.126 77.3781 213.335 80.7504 213.601 84.2484C213.613 84.7475 213.63 85.2409 213.63 85.7343Z" fill="#EFB7B9"/>
<path opacity="0.1" d="M195.837 134.27L195.766 134.894L185.915 120.148C184.884 122.479 184.31 124.039 184.31 124.039C184.31 124.039 160.912 107.172 164.614 106.038C165.858 105.658 167.493 103.106 169.11 99.8903L169.311 99.4819C171.029 104.382 181.01 114.176 185.163 118.101C185.642 118.555 186.039 118.929 186.347 119.201L186.981 119.768L187.313 120.086C188.823 121.578 195.197 128.156 195.837 134.27Z" fill="black"/>
<path d="M203.199 184.303L202.121 217.52L201.932 223.436C201.932 223.436 189.161 222.301 177.243 221.054C167.647 220.05 158.602 218.966 157.209 218.331C155.432 217.532 151.624 216.913 148.62 216.522C146.298 216.222 144.474 216.063 144.474 216.063C144.474 216.063 143.793 216.256 142.744 216.437C140.458 216.834 136.442 217.157 134.102 215.212C131.111 212.722 138.971 203.676 140.932 201.504L141.364 201.034L140.624 194.483L138.699 177.497C138.699 177.497 137.514 167.714 135.737 162.468C135.262 160.977 134.919 159.449 134.712 157.903C134.052 153.111 134.39 148.242 135.707 143.577C136.27 141.594 136.627 139.564 136.773 137.514C137.07 132.268 153.803 111.993 157.95 110.15C159.815 109.317 161.316 107.884 162.191 106.1C162.48 105.539 162.697 104.947 162.837 104.336C164.614 96.9636 169.11 99.89 169.11 99.89C170.194 105.658 186.975 120.925 186.975 120.925L187.307 121.243C188.971 122.876 196.387 130.544 195.86 137.089C195.755 139.525 196.135 141.957 196.98 144.257C200.393 154.548 202.355 165.229 202.814 176.017L203.199 184.303Z" fill="#DCE6F2"/>
<path opacity="0.1" d="M179.422 144.858C179.422 144.858 175.276 154.5 172.166 156.059C169.056 157.619 180.903 159.349 179.422 144.858Z" fill="black"/>
<path opacity="0.1" d="M182.532 162.865C182.532 162.865 173.055 164 173.055 165.701C173.055 167.402 182.532 162.865 182.532 162.865Z" fill="black"/>
<path opacity="0.1" d="M192.455 173.924C192.455 173.924 178.683 201.998 174.832 202.848C170.982 203.699 192.455 173.924 192.455 173.924Z" fill="black"/>
<path opacity="0.1" d="M186.714 122.349L175.324 127.09L161.575 107.206C161.864 106.645 162.081 106.053 162.221 105.442C163.998 98.0695 168.494 100.996 168.494 100.996C169.578 106.764 186.359 122.031 186.359 122.031L186.714 122.349Z" fill="black"/>
<path d="M187.306 121.214L175.915 125.956L162.167 106.072C162.456 105.511 162.673 104.919 162.813 104.308C164.59 96.9353 169.086 99.8617 169.086 99.8617C170.17 105.629 186.951 120.897 186.951 120.897L187.306 121.214Z" fill="#DCE6F2"/>
<path opacity="0.1" d="M201.932 223.436C201.932 223.436 189.161 222.301 177.243 221.054L198.627 226.413V232.652C197.691 233.463 196.879 233.882 196.352 233.667C193.888 232.674 173.778 229.555 173.778 229.555C173.778 229.555 162.097 223.884 149.492 217.078C149.186 216.916 148.889 216.738 148.603 216.545C147.133 215.589 145.867 214.375 144.871 212.966C142.543 209.739 141.406 205.593 140.914 201.527C140.638 199.197 140.535 196.85 140.606 194.506C140.667 191.848 140.921 189.196 141.364 186.572C140.145 176.405 139.552 166.179 139.587 155.946C139.736 140.066 155.285 134.395 155.285 134.395C183.866 131.985 175.004 176.221 175.004 176.221C175.004 176.221 173.351 188.698 172.901 189.974C172.451 191.251 170.834 193.377 171.053 196.355C171.272 199.332 176.734 202.894 176.734 202.894C176.734 202.894 182.065 205.287 184.262 208.832C185.862 211.446 196.252 214.991 202.122 217.52L201.932 223.436Z" fill="black"/>
<path opacity="0.1" d="M211.505 73.1441C211.516 74.0783 211.313 75.0034 210.912 75.855C210.609 76.55 210.256 77.2245 209.858 77.8741C209.234 79.0689 208.35 80.1212 207.263 80.9593C205.895 81.8951 204.165 82.156 202.525 82.5359C200.884 82.9159 199.178 83.5228 198.242 84.8612C197.735 85.7216 197.395 86.6633 197.241 87.6402C197.084 88.6162 196.677 89.5398 196.056 90.3284C195.733 90.7135 195.285 90.9848 194.783 91.0998C194.282 91.2147 193.754 91.1669 193.284 90.9636C192.789 90.6439 192.413 90.1809 192.212 89.6422C191.537 88.1846 191.365 86.5683 191.092 84.9973C190.82 83.4263 190.435 81.81 189.428 80.5453C188.421 79.2806 186.638 78.4469 185.056 78.9403C184.527 79.1354 184.044 79.4309 183.637 79.809C183.23 80.1871 182.907 80.6401 182.687 81.1408C182.249 82.1431 181.949 83.1953 181.792 84.2714C181.058 88.1204 180.191 91.9467 179.192 95.7503C179.162 95.9062 179.095 96.0535 178.997 96.1813C178.839 96.3316 178.627 96.4171 178.404 96.4195C177.077 96.5896 175.804 95.6992 174.465 95.7957C174.327 95.8045 174.19 95.8253 174.056 95.858C171.892 92.2565 170.936 88.1049 171.319 83.9659C171.701 79.8269 173.403 75.9005 176.195 72.7188L176.301 72.6904C177.192 72.3877 178.001 71.8996 178.671 71.2612C179.526 70.4419 180.318 69.5644 181.04 68.6354L181.514 68.0682C182.876 66.4978 184.426 65.0871 186.134 63.8657C186.601 63.5 187.135 63.2229 187.71 63.049C188.202 62.9573 188.706 62.942 189.203 63.0037C191.248 63.2388 193.311 63.3128 195.369 63.2249C196.803 63.009 198.249 62.8689 199.699 62.8052C203.449 62.9073 206.647 65.4424 209.017 68.2214C210.29 69.6449 211.428 71.2839 211.505 73.1441Z" fill="black"/>
<path d="M171.248 76.3369C170.425 77.63 168.938 78.5091 168.381 79.9269C167.564 81.9857 168.944 84.5491 167.677 86.3867C167.256 87.0048 166.563 87.4642 166.326 88.1731C165.923 89.3698 167.025 90.6459 166.741 91.8766C166.456 93.1072 164.762 94.1451 165.212 95.3474C165.478 95.8718 165.945 96.278 166.516 96.4817C167.413 96.9747 168.446 97.1943 169.477 97.1112C171.094 96.856 172.297 95.3361 173.938 95.2227C175.27 95.1319 176.544 96.0167 177.871 95.8522C178.093 95.8448 178.305 95.7578 178.463 95.6083C178.564 95.4819 178.631 95.334 178.659 95.1773C179.654 91.3775 180.523 87.5512 181.265 83.6984C181.416 82.622 181.715 81.5694 182.154 80.5678C182.375 80.0682 182.699 79.6161 183.106 79.2381C183.513 78.8602 183.995 78.5641 184.523 78.3673C186.105 77.8796 187.882 78.7076 188.894 79.9723C189.907 81.237 190.292 82.8534 190.565 84.4243C190.837 85.9953 191.009 87.6117 191.679 89.0692C191.882 89.6098 192.259 90.0745 192.757 90.3963C193.645 90.8897 194.842 90.4984 195.523 89.7611C196.147 88.9722 196.554 88.0459 196.708 87.0672C196.862 86.0921 197.201 85.1523 197.709 84.2939C198.645 82.9555 200.356 82.3486 201.991 81.9686C203.626 81.5886 205.35 81.3221 206.73 80.3863C207.815 79.5491 208.7 78.499 209.325 77.3067C210.201 75.8435 211.019 74.2555 210.948 72.5711C210.871 70.7336 209.733 69.0946 208.519 67.6654C206.15 64.8864 202.945 62.3513 199.195 62.2549C197.745 62.313 196.299 62.4531 194.865 62.6746C192.807 62.7632 190.744 62.6873 188.699 62.4477C188.202 62.3908 187.698 62.408 187.206 62.4987C186.631 62.667 186.097 62.9448 185.637 63.3154C183.927 64.5348 182.374 65.9435 181.01 67.5123C180.131 68.6286 179.177 69.6895 178.155 70.6882C177.485 71.3276 176.676 71.8176 175.786 72.1231C175.193 72.2819 174.601 72.1685 174.038 72.3443C172.291 72.8717 172.06 75.0552 171.248 76.3369Z" fill="#965D7B"/>
<path opacity="0.1" d="M228.291 91.7572C223.553 92.5909 219.625 88.9215 217.451 86.2446C216.784 85.4317 216.176 84.5751 215.633 83.6812L231.899 86.6189L232.556 86.738C232.556 86.738 235.548 90.4868 228.291 91.7572Z" fill="black"/>
<g opacity="0.1">
<path opacity="0.1" d="M166.74 90.2545C166.806 89.5128 166.689 88.7665 166.397 88.0767C166.397 88.1334 166.343 88.1901 166.326 88.2468C166.071 89.0068 166.414 89.7951 166.634 90.5834C166.681 90.4775 166.716 90.3673 166.74 90.2545V90.2545Z" fill="black"/>
<path opacity="0.1" d="M168.15 80.9707C168.089 81.7549 168.104 82.5429 168.197 83.3243C168.258 82.5401 168.242 81.7521 168.15 80.9707Z" fill="black"/>
<path opacity="0.1" d="M209.289 75.6678C208.665 76.8627 207.78 77.9149 206.694 78.753C205.326 79.6888 203.602 79.9497 201.955 80.3297C200.309 80.7097 198.609 81.3165 197.673 82.655C197.166 83.5157 196.827 84.4573 196.672 85.4339C196.517 86.4124 196.11 87.3384 195.487 88.1279C194.806 88.8651 193.609 89.2621 192.721 88.7631C192.223 88.4412 191.846 87.9765 191.643 87.4359C190.973 85.9784 190.795 84.3677 190.529 82.7911C190.262 81.2144 189.865 79.6038 188.858 78.339C187.851 77.0743 186.069 76.2406 184.487 76.734C183.958 76.93 183.476 77.2258 183.069 77.6038C182.662 77.9819 182.338 78.4344 182.118 78.9345C181.679 79.9362 181.38 80.9888 181.229 82.0651C180.491 85.9179 179.622 89.7442 178.623 93.544C178.595 93.7008 178.528 93.8487 178.427 93.9751C178.269 94.1245 178.057 94.2115 177.835 94.2189C176.508 94.3834 175.234 93.4987 173.902 93.5894C172.261 93.7028 171.058 95.2228 169.441 95.4723C168.41 95.5609 167.375 95.3409 166.48 94.8428C166.068 94.6732 165.698 94.4219 165.396 94.1055C165.257 94.2955 165.165 94.5132 165.127 94.7421C165.089 94.971 165.106 95.2052 165.176 95.4269C165.437 95.9549 165.906 96.3627 166.48 96.5612C167.375 97.0594 168.41 97.2793 169.441 97.1907C171.058 96.9412 172.261 95.4213 173.902 95.3078C175.234 95.2171 176.508 96.1018 177.835 95.9374C178.057 95.93 178.269 95.8429 178.427 95.6935C178.528 95.5671 178.595 95.4192 178.623 95.2625C179.618 91.4815 180.487 87.6552 181.229 83.7836C181.38 82.7072 181.679 81.6546 182.118 80.653C182.338 80.1528 182.662 79.7003 183.069 79.3223C183.476 78.9442 183.958 78.6484 184.487 78.4525C186.069 77.9591 187.846 78.7928 188.858 80.0575C189.871 81.3222 190.256 82.9385 190.529 84.5095C190.801 86.0805 190.973 87.6968 191.643 89.1544C191.846 89.695 192.223 90.1597 192.721 90.4815C193.609 90.9749 194.806 90.5836 195.487 89.8463C196.11 89.0569 196.517 88.1308 196.672 87.1524C196.827 86.1757 197.166 85.2342 197.673 84.3734C198.609 83.035 200.32 82.4338 201.955 82.0481C203.59 81.6625 205.314 81.4073 206.694 80.4715C207.78 79.6334 208.665 78.5811 209.289 77.3862C210.165 75.9287 210.983 74.3407 210.912 72.6563C210.9 72.4397 210.876 72.2239 210.841 72.0098C210.555 73.3078 210.029 74.5466 209.289 75.6678V75.6678Z" fill="black"/>
</g>
<path opacity="0.1" d="M210.935 75.838C212.454 78.4239 213.354 81.3005 213.571 84.26C208.293 81.4243 203.329 78.3107 200.824 77.2275C196.458 75.3389 180.133 75.6225 173.996 75.7983C174.638 74.7004 175.388 73.6635 176.235 72.7017C177.637 71.1071 179.285 69.7263 181.122 68.607C183.555 67.1289 186.276 66.1414 189.121 65.7046C191.965 65.2679 194.873 65.3912 197.666 66.0669C200.46 66.7426 203.079 67.9567 205.366 69.6347C207.652 71.3128 209.557 73.4197 210.965 75.8267L210.935 75.838Z" fill="black"/>
<path opacity="0.1" d="M229.772 89.3526C226.923 90.1919 222.273 88.5699 217.451 86.2446C216.784 85.4317 216.176 84.5751 215.633 83.6812L231.899 86.6189C232.977 87.3222 233.249 88.326 229.772 89.3526Z" fill="black"/>
<path d="M193.716 56.1751C193.716 56.1751 178.167 55.3244 173.795 63.4062L173.091 70.5691L171.906 70.4444L171.669 75.3161C171.669 75.3161 195.434 74.3236 200.842 76.6602C206.25 78.9968 223.055 90.7706 229.79 88.7856C236.525 86.8006 229.198 84.9574 229.198 84.9574C229.198 84.9574 219.928 81.1973 219.928 78.2482C219.928 75.2991 217.629 59.7198 193.716 56.1751Z" fill="#444053"/>
<path opacity="0.1" d="M163.726 321.709C163.726 321.709 173.647 330.925 177.942 330.217C177.942 330.217 165.799 329.224 163.726 321.709Z" fill="black"/>
<path opacity="0.1" d="M161.652 325.98C161.652 325.98 162.541 330.721 164.91 330.256C167.28 329.791 161.652 325.98 161.652 325.98Z" fill="black"/>
<path opacity="0.1" d="M177.201 405.221C177.201 405.221 163.115 415.713 165.491 415.996C167.866 416.28 177.201 405.221 177.201 405.221Z" fill="black"/>
<path d="M196.044 196.984L241.655 189.878V231.222L198.319 229.05L196.044 196.984Z" fill="#F5CB99"/>
<path opacity="0.05" d="M196.044 196.984L241.655 189.878V231.222L198.319 229.05L196.044 196.984Z" fill="black"/>
<path d="M241.654 189.878L296.352 193.797L293.325 229.776L241.654 231.222V189.878Z" fill="#F5CB99"/>
<path opacity="0.1" d="M241.654 189.878L296.352 193.797L293.325 229.776L241.654 231.222V189.878Z" fill="black"/>
<path d="M258.471 177.259L241.654 189.878L296.352 193.797L305.29 180.883L258.471 177.259Z" fill="#F5CB99"/>
<path d="M179.529 183.203L220.591 178.416L241.655 189.878L196.044 196.984L179.529 183.203Z" fill="#F5CB99"/>
<path d="M251.654 200.614V257.141L230.288 255.042L220.994 254.135L218.162 253.851L208.874 252.938L196.044 251.679V196.984L241.649 199.956L251.654 200.614Z" fill="#F5CB99"/>
<path d="M296.352 193.797V248.923L279.227 252.07L270.899 253.602L251.653 257.141V200.614L296.352 193.797Z" fill="#F5CB99"/>
<path opacity="0.05" d="M296.352 193.797V248.923L279.227 252.07L270.899 253.602L251.653 257.141V200.614L296.352 193.797Z" fill="black"/>
<path d="M179.529 208.883L196.044 196.984L251.654 200.614L243.467 213.817L179.529 208.883Z" fill="#F5CB99"/>
<path opacity="0.1" d="M179.529 208.883L196.044 196.984L251.654 200.614L243.467 213.817L179.529 208.883Z" fill="white"/>
<path d="M296.352 193.797L251.653 200.614L266.201 213.091L314.081 205.401L296.352 193.797Z" fill="#F5CB99"/>
<path opacity="0.1" d="M296.352 193.797L251.653 200.614L266.201 213.091L314.081 205.401L296.352 193.797Z" fill="white"/>
<path opacity="0.1" d="M279.228 252.071L270.899 253.602V241.822L278.701 239.939L279.228 252.071Z" fill="white"/>
<path opacity="0.1" d="M230.287 247.25V255.043L220.993 254.135V247.25H230.287Z" fill="white"/>
<path opacity="0.1" d="M218.162 249.706V253.851L208.874 252.938V249.706H218.162Z" fill="white"/>
<path opacity="0.1" d="M246.062 243.115C239.694 250.913 218.666 245.526 218.666 245.526L203.04 229.918L200.919 227.802L205.065 220.43C205.065 220.43 206.25 220.804 208.229 221.462C218.701 224.967 251.423 236.553 246.062 243.115Z" fill="black"/>
<path d="M245.469 241.981C239.101 249.779 218.073 244.391 218.073 244.391L202.447 228.784L200.326 226.668L204.473 219.295C204.473 219.295 205.657 219.67 207.636 220.328C218.108 223.833 250.83 235.419 245.469 241.981Z" fill="#EFB7B9"/>
<path opacity="0.1" d="M207.612 220.328C206.747 222.71 204.55 226.237 202.423 228.784L200.303 226.668L204.449 219.295C204.449 219.295 205.64 219.67 207.612 220.328Z" fill="black"/>
<path d="M155.876 132.126C155.876 132.126 140.327 137.798 140.179 153.678C140.144 163.911 140.737 174.137 141.956 184.303C141.956 184.303 137.514 207.981 150.101 214.787C162.688 221.593 174.387 227.264 174.387 227.264C174.387 227.264 194.498 230.383 196.968 231.376C199.438 232.368 208.021 219.608 206.688 217.481C205.355 215.354 187.046 210.108 184.872 206.563C182.698 203.019 177.343 200.631 177.343 200.631C177.343 200.631 171.882 197.064 171.663 194.086C171.443 191.109 173.055 188.982 173.511 187.706C173.967 186.43 175.619 173.953 175.619 173.953C175.619 173.953 184.457 129.688 155.876 132.126Z" fill="#DCE6F2"/>
<path opacity="0.1" d="M162.985 184.7C162.985 184.7 141.956 186.969 143.585 194.058C143.585 194.058 151.576 186.906 162.985 184.7Z" fill="black"/>
<path opacity="0.1" d="M162.985 187.536C162.985 187.536 151.049 195.901 153.24 196.468C155.432 197.035 162.985 187.536 162.985 187.536Z" fill="black"/>
<path opacity="0.1" d="M168.316 190.938C168.316 190.938 164.911 196.803 166.836 196.496C168.761 196.19 168.316 190.938 168.316 190.938Z" fill="black"/>
<path d="M387.26 63.7408C387.26 63.7408 364.751 62.4421 367.381 77.562C367.381 77.562 366.854 80.2332 369.383 81.4469C369.383 81.4469 369.424 80.3126 371.693 80.7039C372.501 80.8341 373.322 80.8722 374.139 80.8174C375.247 80.7466 376.3 80.3303 377.137 79.632V79.632C377.137 79.632 383.469 77.131 385.933 67.2174C385.933 67.2174 387.758 65.0509 387.71 64.4951L383.907 66.0547C383.907 66.0547 385.205 68.6806 384.18 70.8641C384.18 70.8641 384.061 66.1511 383.327 66.2589C383.179 66.2589 381.354 67.172 381.354 67.172C381.354 67.172 383.587 71.7431 381.899 75.0722C381.899 75.0722 382.539 69.4349 380.655 67.5009L377.978 68.9982C377.978 68.9982 380.59 73.7225 378.819 77.579C378.819 77.579 379.275 71.6637 377.415 69.3612L374.987 71.1703C374.987 71.1703 377.445 75.8322 375.946 79.0309C375.946 79.0309 375.751 72.1458 374.459 71.624C374.459 71.624 372.339 73.4162 372.019 74.1535C372.019 74.1535 373.695 77.5563 372.653 79.3201C372.653 79.3201 372.013 74.732 371.468 74.7093C371.468 74.7093 369.353 77.7491 369.134 79.8135C369.237 77.8889 369.863 76.0236 370.953 74.403C369.734 74.6238 368.609 75.1818 367.718 76.008C367.718 76.008 368.044 73.8586 371.474 73.6714C371.474 73.6714 373.251 71.3632 373.689 71.2214C373.689 71.2214 370.277 70.9491 368.21 71.8282C368.21 71.8282 370.029 69.8035 374.317 70.6939L376.687 68.8224C376.687 68.8224 372.197 68.2552 370.289 68.8848C370.289 68.8848 372.481 67.0926 377.332 68.397L379.939 66.9054C379.939 66.9054 376.112 66.1114 373.831 66.4007C373.831 66.4007 376.236 65.1586 380.703 66.5028L382.569 65.7031C382.569 65.7031 379.761 65.1757 378.943 65.0906C378.126 65.0055 378.079 64.79 378.079 64.79C379.855 64.507 381.678 64.7034 383.345 65.3572C383.345 65.3572 387.343 63.979 387.26 63.7408Z" fill="#F5CB99"/>
<path opacity="0.1" d="M455.653 139.363C455.653 139.363 433.143 138.064 435.773 153.184C435.773 153.184 435.246 155.855 437.775 157.069C437.775 157.069 437.817 155.935 440.092 156.326C440.899 156.456 441.721 156.494 442.538 156.439C443.632 156.363 444.672 155.95 445.5 155.26V155.26C445.5 155.26 451.838 152.753 454.302 142.839C454.302 142.839 456.12 140.679 456.049 140.123L452.247 141.677C452.247 141.677 453.544 144.303 452.525 146.486C452.525 146.486 452.401 141.773 451.672 141.881C451.524 141.881 449.694 142.794 449.694 142.794C449.694 142.794 451.933 147.371 450.244 150.694C450.244 150.694 450.884 145.057 448.995 143.123L446.347 144.603C446.347 144.603 448.959 149.328 447.188 153.184C447.188 153.184 447.644 147.269 445.784 144.966L443.361 146.781C443.361 146.781 445.814 151.437 444.321 154.636C444.321 154.636 444.125 147.751 442.834 147.229C442.834 147.229 440.713 149.021 440.388 149.759C440.388 149.759 442.07 153.161 441.027 154.925C441.027 154.925 440.388 150.337 439.843 150.314C439.843 150.314 437.728 153.354 437.509 155.419C437.615 153.494 438.244 151.629 439.333 150.008C438.113 150.229 436.987 150.787 436.093 151.613C436.093 151.613 436.425 149.464 439.855 149.276C439.855 149.276 441.602 146.968 442.07 146.826C442.07 146.826 438.658 146.554 436.591 147.433C436.591 147.433 438.409 145.409 442.692 146.327L445.061 144.456C445.061 144.456 440.565 143.889 438.664 144.518C438.664 144.518 440.856 142.726 445.707 144.03L448.313 142.539C448.313 142.539 444.481 141.751 442.2 142.034C442.2 142.034 444.611 140.792 449.077 142.136L450.943 141.337C450.943 141.337 448.136 140.809 447.312 140.724C446.489 140.639 446.447 140.423 446.447 140.423C448.226 140.14 450.051 140.337 451.719 140.991C451.719 140.991 455.724 139.601 455.653 139.363Z" fill="#F5CB99"/>
<path opacity="0.1" d="M318.909 125.939C318.909 125.939 324.092 104.904 308.075 104.83C308.075 104.83 305.416 103.877 303.739 106.055C303.739 106.055 304.882 106.288 304.106 108.363C303.838 109.097 303.659 109.859 303.573 110.632C303.459 111.686 303.706 112.747 304.278 113.655V113.655C304.278 113.655 305.777 120.063 315.533 124.079C315.533 124.079 317.452 126.166 318.033 126.189L317.085 122.338C317.085 122.338 314.159 123.115 312.085 121.771C312.085 121.771 316.96 122.457 316.966 121.771C316.966 121.629 316.374 119.751 316.374 119.751C316.374 119.751 311.286 121.079 308.146 118.918C308.146 118.918 313.839 120.483 316.155 119.037L315.089 116.247C315.089 116.247 309.757 117.908 306.109 115.577C306.109 115.577 312.121 117.018 314.81 115.657L313.359 113.059C313.359 113.059 308.146 114.579 305.108 112.623C305.108 112.623 312.216 113.609 312.986 112.486C312.986 112.486 311.505 110.178 310.8 109.747C310.8 109.747 307.033 110.757 305.374 109.469C305.374 109.469 310.202 109.645 310.314 109.157C310.314 109.157 307.548 106.645 305.439 106.078C307.404 106.506 309.219 107.417 310.705 108.721C310.683 107.532 310.301 106.375 309.603 105.392C309.603 105.392 311.76 106.072 311.381 109.362C311.381 109.362 313.454 111.403 313.519 111.868C313.519 111.868 314.378 108.698 313.827 106.594C313.827 106.594 315.604 108.658 313.928 112.543L315.444 115.124C315.444 115.124 316.818 110.984 316.469 109.078C316.469 109.078 317.944 111.449 315.77 115.804L316.866 118.521C316.866 118.521 318.329 115.039 318.424 112.849C318.424 112.849 319.294 115.333 317.144 119.32L317.653 121.215C317.653 121.215 318.672 118.657 318.897 117.897C319.123 117.137 319.354 117.131 319.354 117.131C319.344 118.857 318.834 120.546 317.879 122.009C317.879 122.009 318.655 125.967 318.909 125.939Z" fill="#F5CB99"/>
<path opacity="0.1" d="M269.613 133.107C269.613 133.107 251.535 120.16 245.072 134.185C245.072 134.185 243.1 136.141 244.515 138.484C244.515 138.484 245.191 137.571 246.885 139.085C247.485 139.619 248.149 140.084 248.863 140.469C249.831 140.985 250.948 141.184 252.044 141.036V141.036C252.044 141.036 258.773 142.278 266.521 135.296C266.521 135.296 269.287 134.446 269.548 133.947L265.467 133.26C265.467 133.26 265.04 136.136 262.937 137.423C262.937 137.423 265.538 133.419 264.863 133.13C264.726 133.068 262.689 132.846 262.689 132.846C262.689 132.846 261.93 137.849 258.613 139.737C258.613 139.737 262.387 135.364 261.919 132.756L258.821 132.597C258.821 132.597 258.293 137.922 254.597 140.214C254.597 140.214 258.37 135.512 258.151 132.608L255.083 132.846C255.083 132.846 254.461 138.024 251.375 139.907C251.375 139.907 255.16 134.054 254.384 132.943C254.384 132.943 251.582 133.323 250.889 133.765C250.889 133.765 250.35 137.474 248.454 138.416C248.454 138.416 250.557 134.247 250.131 133.958C250.131 133.958 246.618 135.382 245.238 137.004C246.432 135.45 248.029 134.223 249.87 133.442C248.724 132.986 247.465 132.86 246.245 133.079C246.245 133.079 247.75 131.457 250.723 133.107C250.723 133.107 253.507 132.103 253.981 132.228C253.981 132.228 251.286 130.204 249.053 129.852C249.053 129.852 251.742 129.115 254.793 132.12L257.867 131.82C257.867 131.82 254.449 128.984 252.488 128.508C252.488 128.508 255.349 128.162 258.649 131.803L261.682 131.933C261.682 131.933 258.939 129.256 256.872 128.292C256.872 128.292 259.591 128.519 262.552 131.996L264.572 132.308C264.572 132.308 262.529 130.391 261.889 129.892C261.249 129.393 261.338 129.183 261.338 129.183C262.986 129.881 264.399 131.004 265.419 132.427C265.419 132.427 269.536 133.34 269.613 133.107Z" fill="#F5CB99"/>
<path opacity="0.1" d="M329.803 12.8115C329.803 12.8115 311.724 -0.141995 305.262 13.889C305.262 13.889 303.289 15.8456 304.705 18.1879C304.705 18.1879 305.38 17.2748 307.074 18.7891C307.677 19.3208 308.343 19.7833 309.059 20.1672C310.026 20.6834 311.143 20.8826 312.239 20.7344V20.7344C312.239 20.7344 318.969 21.9764 326.716 14.9893C326.716 14.9893 329.483 14.1442 329.737 13.6395L325.656 12.9646C325.656 12.9646 325.236 15.84 323.127 17.1274C323.127 17.1274 325.733 13.1234 325.058 12.8341C324.922 12.7718 322.884 12.5506 322.884 12.5506C322.884 12.5506 322.102 17.5641 318.785 19.4413C318.785 19.4413 322.552 15.0687 322.09 12.4598L318.992 12.301C318.992 12.301 318.459 17.6265 314.769 19.912C314.769 19.912 318.542 15.2105 318.323 12.3067L315.26 12.5449C315.26 12.5449 314.633 17.7286 311.546 19.6115C311.546 19.6115 315.337 13.7586 314.561 12.647C314.561 12.647 311.76 13.027 311.067 13.4693C311.067 13.4693 310.528 17.1784 308.632 18.1199C308.632 18.1199 310.735 13.9514 310.308 13.6565C310.308 13.6565 306.796 15.0857 305.416 16.7077C306.608 15.153 308.205 13.9249 310.048 13.1461C308.901 12.6867 307.638 12.5605 306.417 12.7831C306.417 12.7831 307.927 11.1611 310.901 12.8115C310.901 12.8115 313.685 11.8019 314.159 11.9324C314.159 11.9324 311.464 9.90771 309.23 9.55041C309.23 9.55041 311.914 8.8188 314.964 11.819L318.039 11.5184C318.039 11.5184 314.627 8.68269 312.66 8.20062C312.66 8.20062 315.521 7.86033 318.826 11.5014L321.859 11.6261C321.859 11.6261 319.117 8.94924 317.043 7.99078C317.043 7.99078 319.768 8.21763 322.73 11.6942L324.744 12.0061C324.744 12.0061 322.694 10.1119 322.055 9.62414C321.415 9.1364 321.504 8.92089 321.504 8.92089C323.152 9.6188 324.565 10.742 325.585 12.1649C325.585 12.1649 329.702 13.027 329.803 12.8115Z" fill="#F5CB99"/>
<path opacity="0.1" d="M398.882 29.2191C398.882 29.2191 391.656 8.73971 378.026 16.7874C378.026 16.7874 375.242 17.3546 375.022 20.0258C375.022 20.0258 376.118 19.6401 376.604 21.7953C376.784 22.5619 377.057 23.306 377.416 24.0128C377.905 24.964 378.703 25.7379 379.69 26.2189V26.2189C379.69 26.2189 384.5 30.8978 395.02 29.3495C395.02 29.3495 397.798 30.1549 398.308 29.877L395.346 27.0923C395.346 27.0923 393.296 29.2304 390.797 29.1454C390.797 29.1454 395.316 27.2625 394.943 26.6556C394.866 26.5365 393.32 25.2491 393.32 25.2491C393.32 25.2491 389.73 28.9526 385.88 28.7087C385.88 28.7087 391.573 27.1547 392.734 24.7387L390.281 22.9295C390.281 22.9295 386.692 27.0243 382.291 26.8995C382.291 26.8995 388.214 25.079 389.713 22.5609L387.047 21.092C387.047 21.092 383.493 25.0223 379.809 24.8975C379.809 24.8975 386.396 22.1355 386.413 20.7971C386.413 20.7971 383.884 19.5891 383.049 19.5777C383.049 19.5777 380.407 22.3397 378.31 22.0902C378.31 22.0902 382.504 19.7933 382.326 19.3225C382.326 19.3225 378.594 18.5909 376.491 19.1807C378.393 18.5467 380.436 18.4001 382.415 18.7554C381.739 17.7566 380.774 16.9683 379.637 16.4868C379.637 16.4868 381.84 15.9707 383.315 18.9425C383.315 18.9425 386.206 19.6288 386.514 19.9861C386.514 19.9861 385.495 16.8611 383.866 15.3526C383.866 15.3526 386.514 16.2089 387.237 20.3547L389.95 21.7726C389.95 21.7726 388.83 17.5701 387.48 16.1012C387.48 16.1012 390.044 17.3716 390.601 22.1639L393.03 23.9164C393.03 23.9164 392.355 20.2186 391.217 18.3017C391.217 18.3017 393.326 19.9691 393.705 24.4438L395.18 25.7936C395.18 25.7936 394.635 23.1053 394.41 22.3454C394.185 21.5854 394.369 21.5344 394.369 21.5344C395.31 23.0056 395.808 24.6976 395.808 26.4231C395.808 26.4231 398.675 29.3666 398.882 29.2191Z" fill="#F5CB99"/>
<path opacity="0.1" d="M351.719 30.2284C351.719 30.2284 329.269 27.8351 331.123 43.0854C331.123 43.0854 330.454 45.7283 332.901 47.0554C332.901 47.0554 333.001 45.9211 335.27 46.4315C336.072 46.5967 336.89 46.6747 337.71 46.6641C338.818 46.6449 339.889 46.2805 340.761 45.6262V45.6262C340.761 45.6262 347.224 43.4314 350.239 33.6482C350.239 33.6482 352.17 31.5782 352.128 31.0167L348.248 32.3892C348.248 32.3892 349.433 35.0717 348.248 37.2042C348.248 37.2042 348.373 32.4913 347.656 32.565C347.508 32.565 345.636 33.3817 345.636 33.3817C345.636 33.3817 347.626 38.0606 345.766 41.3216C345.766 41.3216 346.702 35.7183 344.919 33.6993L342.165 35.0604C342.165 35.0604 344.534 39.9094 342.55 43.6752C342.55 43.6752 343.32 37.7883 341.584 35.4007L339.067 37.1021C339.067 37.1021 341.27 41.8717 339.606 44.9967C339.606 44.9967 339.778 38.1116 338.516 37.5275C338.516 37.5275 336.301 39.2289 335.939 39.9321C335.939 39.9321 337.438 43.3917 336.307 45.1214C336.307 45.1214 335.91 40.5106 335.388 40.4652C335.388 40.4652 333.114 43.3973 332.782 45.4674C332.988 43.5482 333.715 41.7141 334.891 40.1476C333.662 40.3103 332.509 40.8129 331.574 41.5938C331.574 41.5938 332.012 39.4671 335.448 39.4444C335.448 39.4444 337.314 37.2269 337.817 37.1078C337.817 37.1078 334.423 36.6711 332.308 37.4481C332.308 37.4481 334.233 35.5084 338.463 36.637L340.956 34.8846C340.956 34.8846 336.449 34.0112 334.541 34.5783C334.541 34.5783 336.828 32.8769 341.602 34.4366L344.285 33.0697C344.285 33.0697 340.5 32.0943 338.208 32.2701C338.208 32.2701 340.678 31.1358 345.067 32.7068L346.975 31.9979C346.975 31.9979 344.197 31.3343 343.379 31.2095C342.562 31.0848 342.532 30.8692 342.532 30.8692C344.323 30.6725 346.136 30.9552 347.768 31.6859C347.768 31.6859 351.761 30.4666 351.719 30.2284Z" fill="#F5CB99"/>
<path opacity="0.1" d="M548.142 197.064C548.142 197.064 525.704 194.67 527.558 209.904C527.558 209.904 526.889 212.546 529.335 213.874C529.335 213.874 529.436 212.739 531.705 213.244C532.505 213.415 533.325 213.493 534.145 213.477C535.253 213.46 536.325 213.096 537.196 212.439V212.439C537.196 212.439 543.658 210.244 546.644 200.466C546.644 200.466 548.575 198.391 548.533 197.835L544.653 199.202C544.653 199.202 545.838 201.89 544.653 204.022C544.653 204.022 544.778 199.304 544.061 199.383C543.913 199.383 542.041 200.194 542.041 200.194C542.041 200.194 544.031 204.873 542.171 208.134C542.171 208.134 543.107 202.536 541.324 200.512L538.57 201.879C538.57 201.879 540.939 206.728 538.961 210.493C538.961 210.493 539.725 204.607 537.989 202.213L535.472 203.915C535.472 203.915 537.675 208.684 536.011 211.803C536.011 211.803 536.183 204.918 534.921 204.34C534.921 204.34 532.712 206.041 532.344 206.745C532.344 206.745 533.849 210.204 532.712 211.934C532.712 211.934 532.315 207.323 531.793 207.278C531.793 207.278 529.519 210.21 529.187 212.28C529.393 210.361 530.12 208.527 531.296 206.96C530.066 207.12 528.912 207.623 527.979 208.406C527.979 208.406 528.417 206.274 531.853 206.251C531.853 206.251 533.724 204.034 534.222 203.92C534.222 203.92 530.828 203.478 528.713 204.255C528.713 204.255 530.638 202.321 534.874 203.45L537.362 201.697C537.362 201.697 532.907 200.892 530.97 201.448C530.97 201.448 533.257 199.746 538.031 201.3L540.714 199.939C540.714 199.939 536.929 198.963 534.637 199.139C534.637 199.139 537.107 198.005 541.496 199.576L543.403 198.861C543.403 198.861 540.625 198.198 539.808 198.079C538.99 197.96 538.961 197.738 538.961 197.738C540.751 197.538 542.564 197.819 544.197 198.549C544.197 198.549 548.201 197.307 548.142 197.064Z" fill="#F5CB99"/>
<path opacity="0.1" d="M582.445 217.129C582.445 217.129 560.007 214.742 561.861 229.969C561.861 229.969 561.197 232.612 563.638 233.939C563.638 233.939 563.739 232.805 566.007 233.315C566.807 233.482 567.624 233.558 568.442 233.542C569.544 233.521 570.61 233.159 571.481 232.51V232.51C571.481 232.51 577.937 230.315 580.923 220.532C580.923 220.532 582.86 218.462 582.812 217.901L578.932 219.267C578.932 219.267 580.117 221.956 578.932 224.088C578.932 224.088 579.057 219.375 578.34 219.449C578.192 219.449 576.32 220.26 576.32 220.26C576.32 220.26 578.31 224.939 576.45 228.2C576.45 228.2 577.386 222.602 575.603 220.583L572.849 221.944C572.849 221.944 575.218 226.793 573.24 230.559C573.24 230.559 574.004 224.672 572.268 222.285L569.751 223.986C569.751 223.986 571.954 228.756 570.296 231.881C570.296 231.881 570.462 224.99 569.2 224.411C569.2 224.411 566.991 226.113 566.623 226.816C566.623 226.816 568.128 230.275 566.991 232.005C566.991 232.005 566.594 227.394 566.072 227.349C566.072 227.349 563.798 230.281 563.472 232.351C563.677 230.433 564.402 228.599 565.575 227.031C564.346 227.194 563.193 227.697 562.258 228.478C562.258 228.478 562.702 226.345 566.138 226.328C566.138 226.328 568.003 224.111 568.507 223.992C568.507 223.992 565.113 223.555 562.998 224.332C562.998 224.332 564.923 222.392 569.159 223.521L571.646 221.768C571.646 221.768 567.192 220.963 565.255 221.519C565.255 221.519 567.541 219.817 572.316 221.377L574.999 220.01C574.999 220.01 571.214 219.035 568.922 219.211C568.922 219.211 571.392 218.076 575.781 219.647L577.688 218.938C577.688 218.938 574.91 218.275 574.099 218.15C573.287 218.025 573.246 217.81 573.246 217.81C575.037 217.613 576.849 217.896 578.482 218.626C578.482 218.626 582.504 217.373 582.445 217.129Z" fill="#F5CB99"/>
<path opacity="0.1" d="M506.287 48.1161C506.287 48.1161 488.209 35.1683 481.746 49.1936C481.746 49.1936 479.773 51.1503 481.189 53.4925C481.189 53.4925 481.864 52.5794 483.559 54.0937C484.159 54.6282 484.823 55.0927 485.537 55.4775C486.505 55.9929 487.621 56.192 488.718 56.0447V56.0447C488.718 56.0447 495.447 57.2867 503.201 50.3052C503.201 50.3052 505.961 49.4545 506.222 48.9554L502.152 48.2522C502.152 48.2522 501.726 51.1276 499.623 52.415C499.623 52.415 502.224 48.411 501.548 48.1217C501.412 48.0594 499.38 47.8382 499.38 47.8382C499.38 47.8382 498.616 52.8403 495.299 54.7289C495.299 54.7289 499.072 50.3563 498.604 47.7474L495.506 47.5886C495.506 47.5886 494.979 52.9141 491.283 55.2053C491.283 55.2053 495.062 50.5037 494.837 47.6L491.769 47.8382C491.769 47.8382 491.176 53.0161 488.06 54.899C488.06 54.899 491.851 49.0462 491.07 47.9346C491.07 47.9346 488.268 48.3146 487.575 48.7569C487.575 48.7569 487.042 52.466 485.146 53.4075C485.146 53.4075 487.243 49.239 486.817 48.9498C486.817 48.9498 483.304 50.3733 481.924 51.9953C483.118 50.4423 484.714 49.2146 486.556 48.4337C485.41 47.9777 484.15 47.8516 482.931 48.0707C482.931 48.0707 484.441 46.4487 487.415 48.0991C487.415 48.0991 490.193 47.0952 490.667 47.22C490.667 47.22 487.972 45.1953 485.738 44.8437C485.738 44.8437 488.428 44.1064 491.478 47.1122L494.553 46.8117C494.553 46.8117 491.141 43.976 489.174 43.4996C489.174 43.4996 492.035 43.1536 495.335 46.7946L498.373 46.9251C498.373 46.9251 495.625 44.2482 493.557 43.284C493.557 43.284 496.282 43.5109 499.238 46.9875L501.258 47.2994C501.258 47.2994 499.214 45.3825 498.575 44.8834C497.935 44.3843 498.03 44.2198 498.03 44.2198C499.675 44.9196 501.086 46.0426 502.105 47.4639C502.105 47.4639 506.21 48.3486 506.287 48.1161Z" fill="#F5CB99"/>
<path opacity="0.1" d="M520.254 141.592C520.254 141.592 514.023 120.817 500.008 128.275C500.008 128.275 497.2 128.689 496.851 131.377C496.851 131.377 497.964 131.043 498.349 133.215C498.492 133.995 498.731 134.757 499.06 135.484C499.499 136.461 500.261 137.274 501.228 137.798V137.798C501.228 137.798 505.813 142.675 516.392 141.586C516.392 141.586 519.129 142.505 519.65 142.255L516.848 139.34C516.848 139.34 514.698 141.393 512.21 141.2C512.21 141.2 516.807 139.499 516.451 138.892C516.38 138.767 514.9 137.412 514.9 137.412C514.9 137.412 511.144 140.962 507.306 140.548C507.306 140.548 513.069 139.244 514.337 136.896L511.967 134.979C511.967 134.979 508.188 138.915 503.799 138.609C503.799 138.609 509.77 137.038 511.416 134.593L508.822 133.011C508.822 133.011 505.061 136.782 501.412 136.499C501.412 136.499 508.123 134.02 508.206 132.688C508.206 132.688 505.73 131.372 504.895 131.326C504.895 131.326 502.128 133.969 500.026 133.629C500.026 133.629 504.326 131.514 504.172 131.037C504.172 131.037 500.476 130.147 498.349 130.64C500.275 130.093 502.317 130.037 504.273 130.476C503.646 129.45 502.72 128.621 501.607 128.094C501.607 128.094 503.834 127.668 505.161 130.703C505.161 130.703 508.01 131.508 508.307 131.882C508.307 131.882 507.436 128.712 505.878 127.141C505.878 127.141 508.484 128.105 509.012 132.279L511.653 133.816C511.653 133.816 510.729 129.563 509.45 128.065C509.45 128.065 511.95 129.444 512.287 134.253L514.657 136.107C514.657 136.107 514.153 132.387 513.111 130.436C513.111 130.436 515.142 132.194 515.308 136.675L516.718 138.092C516.718 138.092 516.303 135.382 516.126 134.61C515.948 133.839 516.126 133.731 516.126 133.731C517.002 135.24 517.423 136.952 517.34 138.677C517.34 138.677 520.041 141.728 520.254 141.592Z" fill="#F5CB99"/>
<path opacity="0.1" d="M381.396 188.403C381.396 188.403 369.294 170.153 358.057 181.076C358.057 181.076 355.487 182.21 355.937 184.904C355.937 184.904 356.914 184.28 357.921 186.265C358.283 186.969 358.732 187.628 359.26 188.228C359.966 189.046 360.934 189.62 362.014 189.861V189.861C362.014 189.861 367.849 193.309 377.682 189.407C377.682 189.407 380.578 189.555 381.005 189.175L377.451 187.133C377.451 187.133 375.988 189.685 373.541 190.167C373.541 190.167 377.463 187.331 376.935 186.81C376.835 186.708 375.01 185.811 375.01 185.811C375.01 185.811 372.445 190.224 368.643 190.865C368.643 190.865 373.79 188.057 374.323 185.46L371.486 184.263C371.486 184.263 369.016 189.056 364.715 189.935C364.715 189.935 369.987 186.821 370.846 184.031L367.884 183.214C367.884 183.214 365.385 187.848 361.801 188.556C361.801 188.556 367.511 184.371 367.197 183.067C367.197 183.067 364.437 182.471 363.643 182.653C363.643 182.653 361.765 185.936 359.645 186.174C359.645 186.174 363.151 182.987 362.861 182.567C362.861 182.567 359.052 182.709 357.157 183.758C358.848 182.71 360.796 182.103 362.808 182C361.907 181.184 360.777 180.638 359.556 180.429C359.556 180.429 361.564 179.426 363.702 181.978C363.702 181.978 366.664 181.978 367.073 182.261C367.073 182.261 365.296 179.426 363.347 178.365C363.347 178.365 366.131 178.592 367.861 182.454L370.852 183.214C370.852 183.214 368.714 179.386 367.049 178.291C367.049 178.291 369.851 178.938 371.587 183.469L374.382 184.603C374.382 184.603 372.807 181.172 371.225 179.567C371.225 179.567 373.689 180.702 375.164 184.961L376.941 185.942C376.941 185.942 375.757 183.452 375.336 182.766C374.916 182.08 375.081 181.921 375.081 181.921C376.363 183.133 377.268 184.663 377.694 186.339C377.694 186.339 381.236 188.596 381.396 188.403Z" fill="#F5CB99"/>
<path d="M460.931 95.1546C460.931 95.1546 449.421 76.5581 437.829 87.1409C437.829 87.1409 435.223 88.2185 435.59 90.9068C435.59 90.9068 436.579 90.3056 437.527 92.3189C437.866 93.0346 438.294 93.7087 438.801 94.3266C439.481 95.163 440.43 95.761 441.502 96.028V96.028C441.502 96.028 447.218 99.6464 457.175 96.028C457.175 96.028 460.066 96.2605 460.504 95.8919L457.027 93.7481C457.027 93.7481 455.487 96.2492 453.023 96.6632C453.023 96.6632 457.033 93.9239 456.53 93.4078C456.423 93.3001 454.634 92.3473 454.634 92.3473C454.634 92.3473 451.927 96.6859 448.118 97.2133C448.118 97.2133 453.355 94.5591 453.965 91.9843L451.169 90.7253C451.169 90.7253 448.545 95.4495 444.215 96.2038C444.215 96.2038 449.587 93.249 450.535 90.4871L447.609 89.5796C447.609 89.5796 444.955 94.1168 441.354 94.7406C441.354 94.7406 447.194 90.7253 446.922 89.4152C446.922 89.4152 444.185 88.7346 443.368 88.8934C443.368 88.8934 441.383 92.1204 439.257 92.2962C439.257 92.2962 442.864 89.2223 442.592 88.7913C442.592 88.7913 438.777 88.8197 436.852 89.8122C438.576 88.8162 440.543 88.2688 442.556 88.2242C441.681 87.3811 440.567 86.8015 439.352 86.5568C439.352 86.5568 441.395 85.6097 443.498 88.2242C443.498 88.2242 446.46 88.3206 446.857 88.6098C446.857 88.6098 445.18 85.7741 443.261 84.6058C443.261 84.6058 446.033 84.9121 447.639 88.8253L450.6 89.6761C450.6 89.6761 448.592 85.7855 446.957 84.6399C446.957 84.6399 449.741 85.3715 451.329 89.9483L454.083 91.179C454.083 91.179 452.62 87.7024 451.122 86.0747C451.122 86.0747 453.544 87.2827 454.889 91.5816L456.624 92.6138C456.624 92.6138 455.511 90.0901 455.12 89.3925C454.729 88.6949 454.895 88.5418 454.895 88.5418C456.136 89.7913 456.992 91.3463 457.365 93.0335C457.365 93.0335 460.759 95.3418 460.931 95.1546Z" fill="#F5CB99"/>
<path d="M388.113 134.259C388.113 134.259 388.705 112.651 373.026 115.696C373.026 115.696 370.218 115.282 369.033 117.744C369.033 117.744 370.218 117.744 369.886 119.927C369.778 120.706 369.766 121.494 369.851 122.275C369.958 123.335 370.426 124.331 371.183 125.111C371.183 125.111 374.009 131.089 384.44 133.119C384.44 133.119 386.756 134.792 387.337 134.701L385.56 131.117C385.56 131.117 382.864 132.444 380.548 131.542C380.548 131.542 385.465 131.264 385.329 130.573C385.329 130.431 384.31 128.707 384.31 128.707C384.31 128.707 379.607 131.004 376.082 129.495C376.082 129.495 382.006 129.92 383.943 128.054L382.29 125.542C382.29 125.542 377.445 128.196 373.357 126.631C373.357 126.631 379.547 126.869 381.893 125.015L379.921 122.746C379.921 122.746 375.14 125.253 371.752 123.926C371.752 123.926 378.931 123.512 379.453 122.258C379.453 122.258 377.51 120.29 376.728 119.99C376.728 119.99 373.257 121.691 371.361 120.772C371.361 120.772 376.1 120.012 376.13 119.508C376.13 119.508 372.889 117.585 370.704 117.443C372.719 117.478 374.69 118.017 376.42 119.009C376.15 117.849 375.532 116.791 374.643 115.963C374.643 115.963 376.9 116.207 377.208 119.479C377.208 119.479 379.678 121.079 379.838 121.521C379.838 121.521 380.009 118.249 379.02 116.298C379.02 116.298 381.2 117.971 380.383 122.1L382.414 124.334C382.414 124.334 382.876 120.012 382.136 118.215C382.136 118.215 384.079 120.251 382.882 124.935L384.523 127.38C384.523 127.38 385.222 123.687 384.849 121.515C384.849 121.515 386.223 123.784 384.967 128.1L385.868 129.858C385.868 129.858 386.324 127.153 386.383 126.364C386.442 125.576 386.667 125.525 386.667 125.525C387.024 127.217 386.882 128.97 386.259 130.59C386.259 130.59 387.852 134.333 388.113 134.259Z" fill="#F5CB99"/>
<path opacity="0.1" d="M414.034 408.822C422.844 408.822 429.986 407.667 429.986 406.242C429.986 404.816 422.844 403.661 414.034 403.661C405.224 403.661 398.082 404.816 398.082 406.242C398.082 407.667 405.224 408.822 414.034 408.822Z" fill="#F5CB99"/>
<path opacity="0.1" d="M355.884 448C364.694 448 371.836 446.845 371.836 445.42C371.836 443.994 364.694 442.839 355.884 442.839C347.074 442.839 339.932 443.994 339.932 445.42C339.932 446.845 347.074 448 355.884 448Z" fill="#F5CB99"/>
<path opacity="0.1" d="M55.1717 427.929C63.9817 427.929 71.1236 426.774 71.1236 425.349C71.1236 423.923 63.9817 422.768 55.1717 422.768C46.3617 422.768 39.2197 423.923 39.2197 425.349C39.2197 426.774 46.3617 427.929 55.1717 427.929Z" fill="#F5CB99"/>
<path opacity="0.1" d="M476.877 445.419C485.687 445.419 492.829 444.264 492.829 442.839C492.829 441.414 485.687 440.259 476.877 440.259C468.067 440.259 460.925 441.414 460.925 442.839C460.925 444.264 468.067 445.419 476.877 445.419Z" fill="#F5CB99"/>
<path d="M493.486 413.955C506.641 413.955 517.305 412.228 517.305 410.098C517.305 407.968 506.641 406.242 493.486 406.242C480.332 406.242 469.668 407.968 469.668 410.098C469.668 412.228 480.332 413.955 493.486 413.955Z" fill="#F5CB99"/>
<path d="M503.361 403.786C504.448 402.94 505.24 401.796 505.629 400.508C505.926 399.203 505.345 397.644 504.048 397.167C502.591 396.634 501.033 397.598 499.848 398.574C498.663 399.549 497.319 400.666 495.773 400.462C496.566 399.772 497.16 398.897 497.496 397.922C497.833 396.947 497.9 395.906 497.692 394.899C497.625 394.481 497.441 394.089 497.159 393.764C496.347 392.936 494.884 393.294 493.913 393.946C490.832 396.022 489.974 400.026 489.956 403.633C489.648 402.334 489.908 400.978 489.902 399.663C489.897 398.347 489.512 396.827 488.333 396.135C487.609 395.749 486.792 395.553 485.963 395.568C484.577 395.522 483.031 395.653 482.089 396.623C480.905 397.825 481.219 399.85 482.237 401.16C483.256 402.47 484.814 403.315 486.248 404.234C487.395 404.89 488.375 405.783 489.115 406.848C489.199 406.997 489.268 407.152 489.322 407.313H498.006C499.95 406.376 501.751 405.189 503.361 403.786V403.786Z" fill="#F5CB99"/>
<path d="M44.4619 413.353C44.4619 413.353 53.5545 413.087 56.3089 411.215C59.0633 409.344 70.3061 407.115 70.9873 410.115C71.6685 413.115 84.6587 425.025 74.3874 425.105C64.1161 425.184 50.5216 423.573 47.785 421.974C45.0483 420.375 44.4619 413.353 44.4619 413.353Z" fill="#A8A8A8"/>
<path opacity="0.2" d="M74.5592 424.061C64.2878 424.14 50.6934 422.53 47.9568 420.93C45.8717 419.717 45.0424 415.355 44.764 413.342H44.4619C44.4619 413.342 45.0543 420.369 47.7732 421.963C50.492 423.556 64.1042 425.173 74.3755 425.093C77.3373 425.093 78.362 424.061 78.3087 422.564C77.8941 423.477 76.7627 424.044 74.5592 424.061Z" fill="black"/>
</g>
<defs>
<linearGradient id="paint0_linear" x1="132.088" y1="245.809" x2="316.978" y2="245.809" gradientUnits="userSpaceOnUse">
<stop stop-color="#808080" stop-opacity="0.25"/>
<stop offset="0.54" stop-color="#808080" stop-opacity="0.12"/>
<stop offset="1" stop-color="#808080" stop-opacity="0.1"/>
</linearGradient>
<clipPath id="clip0">
<rect width="598" height="448" fill="white"/>
</clipPath>
</defs>
</svg>
