<svg width="45" height="45" viewBox="0 0 45 45" fill="none" xmlns="http://www.w3.org/2000/svg">
<path d="M39.9727 37.5513L28.5601 26.1387C30.3311 23.8491 31.2891 21.0498 31.2891 18.1055C31.2891 14.5811 29.9136 11.2764 27.4263 8.78467C24.939 6.29297 21.6255 4.92188 18.1055 4.92188C14.5854 4.92188 11.272 6.29736 8.78467 8.78467C6.29297 11.272 4.92188 14.5811 4.92188 18.1055C4.92188 21.6255 6.29736 24.939 8.78467 27.4263C11.272 29.918 14.5811 31.2891 18.1055 31.2891C21.0498 31.2891 23.8447 30.3311 26.1343 28.5645L37.5469 39.9727C37.5803 40.0061 37.6201 40.0327 37.6638 40.0508C37.7075 40.0689 37.7544 40.0783 37.8018 40.0783C37.8491 40.0783 37.896 40.0689 37.9397 40.0508C37.9834 40.0327 38.0232 40.0061 38.0566 39.9727L39.9727 38.061C40.0061 38.0276 40.0327 37.9878 40.0508 37.9441C40.0689 37.9004 40.0783 37.8535 40.0783 37.8062C40.0783 37.7588 40.0689 37.7119 40.0508 37.6682C40.0327 37.6245 40.0061 37.5847 39.9727 37.5513V37.5513ZM25.0664 25.0664C23.2031 26.9253 20.7334 27.9492 18.1055 27.9492C15.4775 27.9492 13.0078 26.9253 11.1445 25.0664C9.28564 23.2031 8.26172 20.7334 8.26172 18.1055C8.26172 15.4775 9.28564 13.0034 11.1445 11.1445C13.0078 9.28564 15.4775 8.26172 18.1055 8.26172C20.7334 8.26172 23.2075 9.28125 25.0664 11.1445C26.9253 13.0078 27.9492 15.4775 27.9492 18.1055C27.9492 20.7334 26.9253 23.2075 25.0664 25.0664Z" fill="#323232"/>
</svg>
