<svg width="608" height="553" viewBox="0 0 608 553" fill="none" xmlns="http://www.w3.org/2000/svg">
<path d="M88.4745 518.934C120.665 518.934 146.76 504.998 146.76 487.806C146.76 470.615 120.665 456.678 88.4745 456.678C56.284 456.678 30.1885 470.615 30.1885 487.806C30.1885 504.998 56.284 518.934 88.4745 518.934Z" fill="#E6E6E6"/>
<path d="M522.039 325.843C554.23 325.843 580.325 311.907 580.325 294.715C580.325 277.524 554.23 263.587 522.039 263.587C489.849 263.587 463.753 277.524 463.753 294.715C463.753 311.907 489.849 325.843 522.039 325.843Z" fill="#E6E6E6"/>
<path d="M51.8869 486.857C48.5092 481.858 38.1734 476.347 24.5679 473.636C10.9624 470.924 -2.62952 467.537 0.437453 460.24C3.81518 452.367 16.4479 451.992 28.8103 456.666C42.3212 461.789 52.3058 474.473 52.5084 482.445L51.8869 486.857Z" fill="#F5CB99"/>
<g opacity="0.1">
<path opacity="0.1" d="M51.8869 486.857C48.5092 481.858 38.1734 476.347 24.5679 473.636C10.9624 470.924 -2.62952 467.537 0.437453 460.24C3.81518 452.367 16.4479 451.992 28.8103 456.666C42.3212 461.789 52.3058 474.473 52.5084 482.445L51.8869 486.857Z" fill="black"/>
</g>
<path d="M52.9539 484.57C52.7628 484.571 52.5752 484.523 52.4126 484.43C52.2501 484.337 52.1192 484.204 52.0352 484.045C41.2264 463.376 16.2178 460.052 8.3139 461.177C8.04884 461.213 7.77923 461.15 7.56402 461.002C7.34881 460.855 7.20552 460.635 7.16547 460.39C7.14237 460.268 7.14584 460.143 7.17567 460.023C7.20551 459.903 7.2611 459.789 7.33918 459.689C7.41725 459.589 7.51623 459.504 7.63027 459.44C7.7443 459.376 7.87109 459.333 8.00315 459.315C16.2988 458.128 42.564 461.602 53.8726 483.22C53.9852 483.444 53.9987 483.7 53.9104 483.934C53.8221 484.167 53.6389 484.359 53.3998 484.47C53.2609 484.533 53.1087 484.567 52.9539 484.57Z" fill="white"/>
<path d="M51.8867 486.856C51.8867 486.856 45.3879 463.039 28.9182 450.243C24.0272 446.431 18.812 441.683 15.1641 438.396C7.34126 431.336 10.5974 423.663 21.4466 423.813C37.5516 424.013 49.3331 436.559 54.4402 452.979C59.5474 469.399 51.8867 486.856 51.8867 486.856Z" fill="#F5CB99"/>
<path d="M54.4539 477.609C54.2016 477.607 53.9589 477.52 53.772 477.363C53.5851 477.206 53.4671 476.991 53.4405 476.759C50.4141 446.481 25.4325 431.261 18.6365 429.649C18.3749 429.586 18.1511 429.429 18.0142 429.214C17.8774 428.998 17.8388 428.741 17.9069 428.499C17.975 428.257 18.1442 428.05 18.3773 427.924C18.6104 427.797 18.8883 427.761 19.1499 427.824C27.3915 429.786 52.3597 445.581 55.4672 476.559C55.4898 476.808 55.4062 477.054 55.2344 477.246C55.0626 477.437 54.8162 477.559 54.5484 477.584L54.4539 477.609Z" fill="white"/>
<path d="M555.749 257.464C555.465 257.339 556.032 238.72 565.531 228.411C575.029 218.101 585.594 217.539 592.242 220.688C598.889 223.837 596.957 230.235 588.188 233.559C579.42 236.883 568.354 242.994 564.842 255.29L555.749 257.464Z" fill="#F5CB99"/>
<path opacity="0.1" d="M555.749 257.464C555.465 257.339 556.032 238.72 565.531 228.411C575.029 218.101 585.594 217.539 592.242 220.688C598.889 223.837 596.957 230.235 588.188 233.559C579.42 236.883 568.354 242.994 564.842 255.29L555.749 257.464Z" fill="black"/>
<path d="M559.424 252.253C559.577 252.263 559.73 252.222 559.854 252.137C559.977 252.052 560.064 251.93 560.099 251.791C564.855 233.197 577.664 224.812 587.999 223.162C588.084 223.149 588.165 223.12 588.237 223.077C588.309 223.035 588.372 222.979 588.421 222.914C588.47 222.849 588.504 222.776 588.522 222.698C588.541 222.621 588.542 222.54 588.526 222.462C588.497 222.307 588.402 222.169 588.263 222.078C588.124 221.987 587.951 221.95 587.783 221.975C576.974 223.7 563.747 232.359 558.843 251.516C558.802 251.67 558.829 251.833 558.917 251.969C559.006 252.105 559.149 252.202 559.316 252.241L559.424 252.253Z" fill="white"/>
<path d="M554.533 291.991C556.235 287.193 561.815 284.331 568.138 284.244C574.704 284.156 582.338 284.081 584.77 279.12C587.202 274.159 585.716 267.136 586.932 263.8C588.377 259.789 590.269 257.464 599.092 255.565C606.955 253.865 611.751 247.367 604.239 243.968C596.727 240.569 588.837 241.844 583.392 243.656C577.947 245.468 577.528 247.755 570.178 246.655C562.828 245.555 556.924 249.479 556.113 253.603L554.533 291.991Z" fill="#F5CB99"/>
<path d="M555.87 275.371C556.002 275.378 556.132 275.348 556.245 275.286C556.359 275.223 556.449 275.131 556.505 275.021C563.869 259.726 589.945 247.242 598.294 246.917C598.465 246.907 598.625 246.837 598.741 246.721C598.857 246.604 598.92 246.451 598.916 246.292C598.914 246.213 598.895 246.135 598.86 246.062C598.825 245.99 598.774 245.925 598.711 245.871C598.648 245.818 598.574 245.776 598.493 245.75C598.412 245.723 598.326 245.712 598.24 245.718C589.648 246.067 562.869 258.863 555.33 274.534C555.261 274.678 555.257 274.842 555.317 274.989C555.378 275.136 555.499 275.256 555.654 275.321L555.87 275.371Z" fill="white"/>
<path d="M562.463 266.386H562.612C562.696 266.374 562.777 266.347 562.85 266.306C562.923 266.264 562.986 266.21 563.037 266.147C563.087 266.083 563.123 266.01 563.143 265.933C563.163 265.857 563.166 265.777 563.153 265.699C561.801 257.377 564.193 252.241 564.22 252.191C564.267 252.118 564.297 252.037 564.307 251.953C564.318 251.869 564.309 251.783 564.282 251.703C564.254 251.622 564.209 251.547 564.148 251.484C564.087 251.421 564.012 251.37 563.929 251.336C563.845 251.301 563.754 251.283 563.663 251.283C563.571 251.283 563.481 251.301 563.397 251.336C563.314 251.371 563.239 251.421 563.178 251.485C563.117 251.548 563.072 251.623 563.044 251.703C562.936 251.916 560.423 257.189 561.869 265.887C561.893 266.02 561.965 266.141 562.072 266.232C562.18 266.323 562.318 266.377 562.463 266.386Z" fill="white"/>
<path d="M557.762 272.122C557.863 272.151 557.971 272.151 558.073 272.122C563.274 269.96 573.988 272.497 574.097 272.535C574.263 272.569 574.437 272.543 574.583 272.461C574.729 272.38 574.836 272.249 574.88 272.097C574.921 271.945 574.896 271.784 574.811 271.648C574.725 271.513 574.585 271.414 574.421 271.372C573.961 271.26 563.166 268.698 557.546 271.035C557.391 271.101 557.27 271.22 557.209 271.367C557.148 271.515 557.153 271.678 557.221 271.822C557.274 271.912 557.352 271.988 557.448 272.04C557.543 272.093 557.651 272.121 557.762 272.122Z" fill="white"/>
<path d="M537.806 411.955L453.431 366.968C449.135 364.677 444.263 363.472 439.304 363.473C434.346 363.474 429.475 364.682 425.18 366.975C420.886 369.268 417.319 372.566 414.838 376.537C412.358 380.508 411.05 385.013 411.047 389.599V392.386C411.047 393.38 411.474 394.333 412.234 395.036C412.994 395.739 414.025 396.134 415.1 396.134C416.175 396.134 417.206 395.739 417.966 395.036C418.726 394.333 419.153 393.38 419.153 392.386V389.599C419.156 386.327 420.089 383.114 421.86 380.282C423.63 377.449 426.175 375.098 429.239 373.463C432.303 371.828 435.778 370.968 439.315 370.968C442.853 370.969 446.327 371.831 449.391 373.466L533.753 418.453C534.214 418.699 534.723 418.858 535.251 418.923C535.779 418.987 536.316 418.954 536.83 418.826C537.345 418.699 537.827 418.479 538.249 418.179C538.672 417.879 539.026 417.505 539.292 417.078C539.558 416.651 539.731 416.18 539.8 415.692C539.87 415.204 539.834 414.707 539.696 414.232C539.558 413.756 539.32 413.31 538.996 412.919C538.672 412.528 538.267 412.201 537.806 411.955Z" fill="#37474F"/>
<path d="M443.527 449.131C441.485 448.229 439.236 447.801 436.974 447.881C430.489 447.881 421.545 450.555 411.614 456.291C395.712 465.501 376.324 481.096 374.135 509.112C372.284 532.73 378.418 547.913 385.822 552.112L380.661 549.375C373.108 545.426 366.772 530.144 368.65 506.188C370.838 478.184 390.267 462.577 406.129 453.379C416.059 447.631 425.044 444.957 431.489 444.957C433.867 444.875 436.228 445.366 438.339 446.382L443.527 449.131Z" fill="#F5CB99"/>
<path opacity="0.15" d="M381.228 485.12L375.756 482.196C371.654 489.656 369.236 497.811 368.65 506.163C366.772 530.119 373.108 545.401 380.661 549.35L385.822 552.087C378.418 547.888 372.311 532.705 374.135 509.088C374.723 500.737 377.136 492.583 381.228 485.12Z" fill="black"/>
<path opacity="0.4" d="M443.527 449.131C441.484 448.229 439.235 447.801 436.974 447.881C430.488 447.881 421.544 450.555 411.614 456.291C400.981 462.452 388.78 471.461 381.228 485.145L375.756 482.208C383.308 468.537 395.495 459.528 406.128 453.379C416.059 447.631 425.044 444.957 431.488 444.957C433.867 444.875 436.227 445.366 438.338 446.382L443.527 449.131Z" fill="white"/>
<path d="M535.847 401.033C533.463 399.737 530.734 399.088 527.97 399.158C521.39 399.158 513.716 402.057 506.731 405.481C489.518 413.916 475.264 428.387 471.602 438.746C467.414 450.655 471.832 473.423 485.978 482.958C486.654 483.424 487.343 483.841 488.045 484.207L483.262 481.708L483.06 481.596C482.187 481.132 481.344 480.623 480.533 480.071C466.387 470.537 461.969 447.769 466.157 435.86C469.792 425.513 484.059 411.03 501.286 402.595C508.271 399.171 515.945 396.272 522.525 396.272C525.238 396.21 527.917 396.841 530.267 398.096L535.495 400.845C535.616 400.902 535.733 400.965 535.847 401.033Z" fill="#F5CB99"/>
<path opacity="0.15" d="M471.602 438.746C472.101 437.363 472.716 436.018 473.44 434.723L467.954 431.786C467.26 433.089 466.673 434.438 466.198 435.822C462.01 447.731 466.428 470.499 480.574 480.034C481.384 480.585 482.228 481.094 483.1 481.558L483.303 481.671L488.086 484.17C487.383 483.779 486.694 483.362 486.018 482.92C471.846 473.423 467.427 450.655 471.602 438.746Z" fill="black"/>
<path d="M445.932 466.488C445.633 466.49 445.341 466.4 445.103 466.232C444.865 466.064 444.694 465.828 444.617 465.561C444.54 465.294 444.561 465.01 444.676 464.755C444.792 464.5 444.996 464.288 445.256 464.151L447.256 463.089V461.839C447.276 460.53 447.633 459.244 448.298 458.087C448.963 456.931 449.917 455.938 451.079 455.191L461.294 449.743C461.794 449.438 462.374 449.262 462.972 449.233C463.571 449.205 464.167 449.325 464.698 449.581C465.269 449.942 465.73 450.433 466.037 451.006C466.345 451.579 466.488 452.216 466.455 452.855L467.117 452.505C467.426 452.355 467.785 452.322 468.12 452.412C468.454 452.502 468.739 452.708 468.913 452.987C469.087 453.266 469.138 453.596 469.055 453.909C468.973 454.222 468.762 454.494 468.468 454.667L463.766 457.166V453.005C463.766 452.18 463.496 451.817 463.347 451.755C463.199 451.692 462.942 451.755 462.645 451.905L452.431 457.366C451.688 457.89 451.082 458.562 450.659 459.332C450.235 460.102 450.005 460.951 449.985 461.814V464.526L446.634 466.313C446.422 466.43 446.179 466.49 445.932 466.488Z" fill="#37474F"/>
<path d="M439.797 474.136C437.112 486.171 432.6 497.796 426.395 508.663C415.167 528.207 402.845 539.528 395.32 544.227C394.559 544.701 393.704 545.03 392.804 545.194C391.904 545.359 390.977 545.355 390.079 545.184C389.18 545.013 388.328 544.678 387.571 544.198C386.814 543.718 386.169 543.103 385.673 542.39C387.15 542.445 388.607 542.065 389.834 541.303C397.373 536.617 409.695 525.295 420.909 505.739C427.116 494.872 431.629 483.248 434.312 471.212C436.204 462.464 436.177 456.978 435.798 454.167H436.974C439.446 454.167 440.595 454.729 440.743 454.979C441.338 455.991 442.459 461.802 439.797 474.136Z" fill="#F5CB99"/>
<path opacity="0.15" d="M439.797 474.136C437.112 486.171 432.6 497.796 426.395 508.663C415.167 528.207 402.845 539.528 395.32 544.227C394.559 544.701 393.704 545.03 392.804 545.194C391.904 545.359 390.977 545.355 390.079 545.184C389.18 545.013 388.328 544.678 387.571 544.198C386.814 543.718 386.169 543.103 385.673 542.39C387.15 542.445 388.607 542.065 389.834 541.303C397.373 536.617 409.695 525.295 420.909 505.739C427.116 494.872 431.629 483.248 434.312 471.212C436.204 462.464 436.177 456.978 435.798 454.167H436.974C439.446 454.167 440.595 454.729 440.743 454.979C441.338 455.991 442.459 461.802 439.797 474.136Z" fill="black"/>
<path d="M525.727 472.111C521.674 478.059 512.919 482.208 504.299 482.208C499.142 482.242 494.112 480.73 489.964 477.897C489.434 477.538 488.924 477.155 488.437 476.747C488.829 477.06 489.234 477.36 489.64 477.647C492.552 478.744 495.669 479.3 498.813 479.284C507.433 479.284 516.242 475.135 520.242 469.2C527.2 458.828 533.861 437.709 531.996 415.841C531.537 410.555 530.375 407.369 528.97 405.432C531.888 405.569 536.468 406.881 537.482 418.753C539.346 440.633 532.699 461.752 525.727 472.111Z" fill="#F5CB99"/>
<path opacity="0.15" d="M525.727 472.111C521.674 478.059 512.919 482.208 504.299 482.208C499.142 482.242 494.112 480.73 489.964 477.897C489.434 477.538 488.924 477.155 488.437 476.747C488.829 477.06 489.234 477.36 489.64 477.647C492.552 478.744 495.669 479.3 498.813 479.284C507.433 479.284 516.242 475.135 520.242 469.2C527.2 458.828 533.861 437.709 531.996 415.841C531.537 410.555 530.375 407.369 528.97 405.432C531.888 405.569 536.468 406.881 537.482 418.753C539.346 440.633 532.699 461.752 525.727 472.111Z" fill="black"/>
<path d="M436.974 454.067C439.447 454.067 440.595 454.629 440.744 454.879C441.338 455.954 442.46 461.764 439.798 474.098C437.121 486.136 432.608 497.761 426.395 508.625C415.168 528.169 402.846 539.491 395.32 544.189C394.495 544.704 393.559 545.046 392.577 545.194C391.594 545.342 390.589 545.291 389.63 545.046C388.671 544.8 387.781 544.365 387.021 543.77C386.261 543.176 385.649 542.436 385.228 541.602C382.269 535.879 379.648 525.445 380.891 509.5C382.431 489.718 393.658 474.061 415.208 461.564C423.409 456.828 431.354 454.067 436.974 454.067ZM436.974 447.819C430.489 447.819 421.545 450.493 411.628 456.229C395.712 465.438 376.324 481.033 374.135 509.05C372.203 533.792 379.013 549.275 386.889 552.574C387.622 552.869 388.415 553.014 389.213 552.999C398.414 552.999 417.586 537.254 432.367 511.549C446.513 486.919 450.918 459.428 446.729 451.992C445.189 449.256 441.744 447.819 436.974 447.819Z" fill="#F5CB99"/>
<path d="M527.97 405.407C530.672 405.407 536.347 405.407 537.428 418.753C539.292 440.634 532.645 461.752 525.673 472.111C521.62 478.06 512.865 482.208 504.259 482.208C499.104 482.245 494.074 480.737 489.924 477.91C478.183 470 474.643 450.181 477.993 440.684C480.925 432.324 493.653 418.928 509.839 411.005C517.432 407.256 523.512 405.407 527.916 405.407H527.97ZM527.97 399.159C521.39 399.159 513.73 402.058 506.731 405.482C489.518 413.917 475.264 428.4 471.603 438.747C467.414 450.655 471.832 473.424 485.978 482.958C491.293 486.554 497.714 488.481 504.299 488.456C515.621 488.456 526.362 482.983 531.456 475.423C539.319 463.701 546.142 440.946 544.197 418.265C542.981 403.882 536.347 399.159 527.984 399.159H527.97Z" fill="#F5CB99"/>
<path opacity="0.4" d="M527.97 399.159C530.734 399.088 533.463 399.737 535.847 401.033C535.721 400.951 535.591 400.876 535.455 400.808L530.226 398.059C527.876 396.804 525.198 396.173 522.485 396.235C515.905 396.235 508.231 399.134 501.246 402.558C486.181 409.943 473.359 421.964 467.968 431.786L473.454 434.723C478.858 424.888 491.653 412.867 506.731 405.482C513.716 402.058 521.39 399.159 527.97 399.159Z" fill="white"/>
<path d="M372.46 499.54L288.098 454.554C283.802 452.263 278.93 451.058 273.971 451.059C269.013 451.06 264.142 452.268 259.847 454.561C255.553 456.854 251.986 460.151 249.505 464.122C247.025 468.093 245.717 472.598 245.714 477.185V479.971C245.714 480.966 246.141 481.919 246.901 482.622C247.661 483.325 248.692 483.72 249.767 483.72C250.842 483.72 251.873 483.325 252.633 482.622C253.393 481.919 253.82 480.966 253.82 479.971V477.185C253.824 473.915 254.758 470.704 256.528 467.873C258.297 465.042 260.841 462.692 263.903 461.058C266.965 459.423 270.437 458.562 273.973 458.561C277.508 458.56 280.981 459.419 284.044 461.052L368.42 506.038C369.351 506.535 370.458 506.67 371.497 506.412C372.536 506.154 373.422 505.525 373.959 504.664C374.497 503.802 374.642 502.778 374.363 501.817C374.085 500.856 373.405 500.037 372.473 499.54H372.46Z" fill="#37474F"/>
<path opacity="0.8" d="M527.97 405.407C530.672 405.407 536.347 405.407 537.428 418.753C539.292 440.633 532.645 461.752 525.673 472.111C521.62 478.06 512.865 482.208 504.259 482.208C499.104 482.245 494.074 480.737 489.923 477.91C478.182 469.999 474.643 450.181 477.993 440.683C480.925 432.324 493.652 418.928 509.839 411.005C517.432 407.256 523.512 405.407 527.916 405.407H527.97Z" fill="#455A64"/>
<path opacity="0.8" d="M436.974 454.067C439.447 454.067 440.595 454.629 440.744 454.879C441.338 455.954 442.46 461.764 439.798 474.098C437.121 486.136 432.608 497.761 426.395 508.625C415.168 528.169 402.846 539.491 395.32 544.189C394.495 544.703 393.559 545.046 392.577 545.194C391.594 545.342 390.589 545.291 389.63 545.045C388.671 544.8 387.781 544.365 387.021 543.77C386.261 543.176 385.649 542.436 385.228 541.602C382.269 535.879 379.648 525.445 380.891 509.5C382.431 489.718 393.659 474.061 415.208 461.564C423.409 456.828 431.354 454.067 436.974 454.067Z" fill="#455A64"/>
<path d="M407.791 456.679C407.498 456.681 407.213 456.595 406.978 456.434C406.743 456.273 406.57 456.046 406.486 455.787C406.403 455.528 406.412 455.25 406.513 454.996C406.614 454.743 406.802 454.526 407.048 454.379C437.598 435.565 469.418 418.578 502.313 403.52C502.473 403.433 502.651 403.377 502.836 403.357C503.02 403.337 503.207 403.352 503.385 403.401C503.563 403.45 503.728 403.533 503.87 403.644C504.012 403.755 504.127 403.892 504.209 404.046C504.291 404.201 504.338 404.369 504.346 404.54C504.355 404.712 504.325 404.883 504.258 405.044C504.192 405.204 504.091 405.351 503.961 405.473C503.83 405.596 503.674 405.692 503.502 405.757C470.715 420.772 438.999 437.71 408.547 456.466C408.324 456.605 408.06 456.679 407.791 456.679Z" fill="#37474F"/>
<path d="M267.44 349.374L261.684 346.3L261.238 336.478L193.116 300.101C183.835 295.103 174.647 294.953 167.567 298.652L172.593 295.977C179.727 292.029 189.104 292.104 198.588 297.165L266.724 333.541L267.44 349.374Z" fill="#F5CB99"/>
<path opacity="0.4" d="M267.44 349.374L261.684 346.3L261.238 336.478L193.116 300.101C183.835 295.103 174.647 294.953 167.567 298.652L172.593 295.977C179.727 292.029 189.104 292.104 198.588 297.165L266.724 333.541L267.44 349.374Z" fill="white"/>
<path d="M178.593 309.836C177.517 311.176 176.807 312.736 176.525 314.385L175.971 317.259C175.706 318.669 175.101 320.005 174.201 321.17C173.344 322.269 172.237 323.182 170.959 323.844L165.622 326.706C166.898 326.014 167.995 325.073 168.838 323.948C169.68 322.824 170.247 321.543 170.5 320.195L171.053 317.309C171.891 312.923 174.864 310.236 178.593 309.836Z" fill="#F5CB99"/>
<path opacity="0.15" d="M178.593 309.836C177.517 311.176 176.807 312.736 176.525 314.385L175.971 317.259C175.706 318.669 175.101 320.005 174.201 321.17C173.344 322.269 172.237 323.182 170.959 323.844L165.622 326.706C166.898 326.014 167.995 325.073 168.838 323.948C169.68 322.824 170.247 321.543 170.5 320.195L171.053 317.309C171.891 312.923 174.864 310.236 178.593 309.836Z" fill="black"/>
<path d="M261.955 352.31L185.172 311.261C183.223 310.14 180.931 309.64 178.646 309.836C174.917 310.236 171.891 312.922 171.107 317.334L170.553 320.22C170.301 321.568 169.734 322.849 168.891 323.973C168.049 325.098 166.952 326.039 165.676 326.731L165.473 326.843C163.925 327.67 162.168 328.106 160.38 328.106C158.591 328.106 156.835 327.67 155.286 326.843C154.781 326.564 154.381 326.148 154.14 325.652C153.898 325.156 153.827 324.604 153.935 324.069L155.408 316.446C157.002 308.199 161.366 302.188 167.27 298.952L167.662 298.739C174.742 294.99 183.875 295.24 193.211 300.189L261.238 336.478L261.684 346.3L261.955 352.31Z" fill="#F5CB99"/>
<path opacity="0.15" d="M169.459 322.994C168.579 324.548 167.251 325.846 165.622 326.743L170.959 323.881C172.237 323.219 173.344 322.306 174.201 321.207C174.466 320.86 174.705 320.497 174.918 320.12L169.459 322.994Z" fill="black"/>
<path d="M440.298 257.077L434.543 254.003L434.097 244.181L365.975 207.804C356.693 202.806 347.505 202.656 340.426 206.355L345.452 203.681C352.586 199.732 361.962 199.807 371.447 204.93L439.582 241.307L440.298 257.077Z" fill="#F5CB99"/>
<path opacity="0.4" d="M440.298 257.077L434.543 254.003L434.097 244.181L365.975 207.804C356.693 202.806 347.505 202.656 340.426 206.355L345.452 203.681C352.586 199.732 361.962 199.807 371.447 204.93L439.582 241.307L440.298 257.077Z" fill="white"/>
<path d="M351.451 217.539C350.375 218.879 349.666 220.439 349.384 222.088L348.83 224.962C348.564 226.372 347.959 227.709 347.06 228.873C346.202 229.972 345.096 230.885 343.817 231.547L338.48 234.409C339.756 233.717 340.854 232.776 341.696 231.651C342.538 230.527 343.105 229.246 343.358 227.898L343.912 225.012C344.75 220.626 347.722 217.889 351.451 217.539Z" fill="#F5CB99"/>
<path opacity="0.15" d="M351.451 217.539C350.375 218.879 349.666 220.439 349.384 222.088L348.83 224.962C348.564 226.372 347.959 227.709 347.06 228.873C346.202 229.972 345.096 230.885 343.817 231.547L338.48 234.409C339.756 233.717 340.854 232.776 341.696 231.651C342.538 230.527 343.105 229.246 343.358 227.898L343.912 225.012C344.75 220.626 347.722 217.889 351.451 217.539Z" fill="black"/>
<path d="M434.813 260.014L357.977 218.964C356.028 217.843 353.736 217.343 351.451 217.539C347.722 217.939 344.696 220.626 343.912 225.037L343.358 227.923C343.106 229.271 342.538 230.552 341.696 231.676C340.854 232.801 339.756 233.742 338.481 234.434L338.278 234.546C336.729 235.373 334.973 235.809 333.184 235.809C331.396 235.809 329.639 235.373 328.091 234.546C327.586 234.267 327.186 233.851 326.944 233.355C326.703 232.859 326.631 232.307 326.74 231.772L328.212 224.15C329.807 215.902 334.171 209.891 340.075 206.655L340.467 206.442C347.546 202.694 356.68 202.944 366.016 207.892L434.097 244.131L434.543 253.953L434.813 260.014Z" fill="#F5CB99"/>
<path opacity="0.15" d="M342.318 230.697C341.438 232.251 340.11 233.549 338.48 234.446L343.817 231.585C345.096 230.922 346.202 230.01 347.06 228.91C347.327 228.565 347.566 228.201 347.776 227.823L342.318 230.697Z" fill="black"/>
<path d="M445.068 244.131C442.109 245.218 438.772 246.518 435.191 248.03C419.248 254.753 398.415 265.287 385.863 275.746C370.136 288.88 364.597 297.177 355.882 301.838C347.168 306.499 341.642 304.088 325.915 307.749C313.377 310.698 292.543 322.407 276.6 332.741C273.007 335.066 269.656 337.327 266.724 339.389C265.756 344.659 266.005 350.059 267.454 355.234C267.454 355.234 270.858 352.435 272.574 358.596C274.29 364.757 275.371 377.728 278.668 383.488C280.071 386.222 282.264 388.544 285.004 390.199H285.085C286.07 390.742 287.129 391.162 288.233 391.448C288.844 391.59 289.462 391.702 290.084 391.786C291.925 391.988 293.788 391.934 295.61 391.623C295.921 391.623 296.232 391.523 296.542 391.448C296.853 391.373 297.515 391.248 298.015 391.123C298.515 390.999 299.029 390.849 299.555 390.699C301.229 390.199 302.863 389.593 304.446 388.887C305.122 388.612 305.797 388.287 306.541 387.949C307.284 387.612 308.256 387.1 309.162 386.612C329.428 375.803 337.845 360.92 342.844 347.549C347.843 334.178 346.519 319.808 355.855 314.822C356.144 314.666 356.442 314.524 356.747 314.397C357.014 314.28 357.289 314.179 357.571 314.097C365.07 311.873 364.205 326.156 368.88 333.654C370.533 336.563 372.983 339.019 375.987 340.776C376.533 341.069 377.097 341.331 377.675 341.564C377.969 341.686 378.272 341.79 378.581 341.876C378.891 341.976 379.202 342.063 379.526 342.138C379.851 342.213 380.094 342.276 380.391 342.326C380.485 342.344 380.581 342.344 380.675 342.326L381.323 342.426C381.569 342.464 381.817 342.489 382.066 342.501H382.58C385.506 342.623 388.432 342.251 391.213 341.401L392.01 341.164C395.688 339.998 399.224 338.482 402.562 336.64C422.829 325.818 429.787 310.211 433.084 300.926C436.38 291.641 437.475 277.496 439.191 269.511C440.906 261.526 444.311 260.676 444.311 260.676C446.77 250.379 445.068 244.131 445.068 244.131ZM337.602 340.351C336.411 346.878 334.05 353.175 330.617 358.983C325.473 367.545 317.833 374.598 308.567 379.34C297.583 385.075 291.165 383.613 287.315 379.927C287.075 379.706 286.849 379.472 286.639 379.227C286.423 378.99 286.22 378.752 286.018 378.502C285.827 378.275 285.651 378.037 285.491 377.79C285.342 377.578 285.193 377.353 285.058 377.128C284.937 376.956 284.829 376.776 284.734 376.59C284.629 376.433 284.534 376.271 284.45 376.103C284.302 375.828 284.153 375.541 284.018 375.266C283.611 374.452 283.255 373.618 282.951 372.767C282.761 372.229 282.586 371.692 282.424 371.18C282.14 370.242 281.91 369.343 281.721 368.543L281.599 368.031L281.478 367.543C279.897 360.933 278.006 347.287 281.478 342.113C284.95 336.94 294.151 328.555 309.229 322.02C309.743 321.77 310.283 321.545 310.837 321.32C313.083 320.389 315.383 319.575 317.728 318.883C318.633 318.608 319.525 318.371 320.43 318.146C322.647 317.581 324.904 317.163 327.185 316.896C327.901 316.809 328.536 316.746 329.239 316.709C329.98 316.652 330.724 316.631 331.468 316.646H331.914H332.725C334.376 316.62 335.982 317.144 337.251 318.121C340.169 320.995 339.291 331.142 337.602 340.351ZM430.354 287.868C429.125 294.341 426.477 308.311 415.195 319.783C411.715 323.318 407.674 326.343 403.211 328.755C390.443 335.753 383.201 334.266 379.081 330.355V330.28C378.918 330.13 378.77 329.98 378.635 329.83C378.459 329.655 378.297 329.467 378.148 329.292L377.905 329.005C377.689 328.73 377.473 328.443 377.284 328.155C377.094 327.868 376.838 327.48 376.635 327.118C376.527 326.956 376.432 326.781 376.338 326.606L376.189 326.306C376.108 326.156 376.041 326.006 375.973 325.856C375.906 325.706 375.851 325.618 375.811 325.506C375.129 323.976 374.604 322.391 374.244 320.77C372.568 313.36 371.663 304.175 374.69 297.989C377.716 291.804 389.551 280.495 401.036 272.997C403.666 271.273 406.134 269.781 408.44 268.523L409.318 268.049L410.264 267.549C411.142 267.086 412.007 266.661 412.831 266.299L413.763 265.862L414.979 265.324C415.668 265.012 416.33 264.737 416.992 264.487C418.343 263.962 419.559 263.525 420.708 263.238L421.586 262.988H421.816C422.005 262.988 422.207 262.875 422.41 262.838C422.613 262.8 423.018 262.688 423.302 262.625C423.585 262.563 424.031 262.475 424.369 262.413C424.949 262.307 425.536 262.232 426.126 262.188H426.436C427.803 262.01 429.197 262.151 430.49 262.6C433.773 263.937 431.908 279.633 430.354 287.868Z" fill="black"/>
<path d="M376.014 340.789L370.745 337.977C367.637 336.216 365.106 333.706 363.422 330.717C360.422 325.931 359.706 318.346 357.599 314.097C365.097 311.873 364.232 326.156 368.907 333.654C370.558 336.568 373.009 339.029 376.014 340.789Z" fill="black"/>
<path d="M278.668 383.501C275.371 377.74 274.277 364.756 272.574 358.608C270.872 352.46 267.454 355.247 267.454 355.247L266.846 354.922C266.927 355.159 267.008 355.409 267.089 355.684C268.791 361.845 269.886 374.816 273.182 380.576C274.597 383.341 276.826 385.68 279.613 387.324L285.018 390.211C282.273 388.558 280.075 386.236 278.668 383.501Z" fill="black"/>
<path d="M266.724 339.402L261.239 336.478C260.271 341.743 260.515 347.138 261.955 352.31L266.846 354.922L267.454 355.247C266.005 350.072 265.757 344.672 266.724 339.402Z" fill="black"/>
<path d="M439.582 241.244C436.623 242.319 433.286 243.631 429.692 245.143C413.763 251.853 392.929 262.388 380.377 272.847C364.651 285.98 359.098 294.29 350.397 298.939C341.696 303.588 336.156 301.201 320.429 304.862C307.891 307.799 287.058 319.52 271.115 329.855C267.521 332.166 264.17 334.441 261.238 336.503L266.724 339.427C269.656 337.365 273.006 335.103 276.6 332.779C292.543 322.469 313.377 310.76 325.915 307.786C341.642 304.125 347.168 306.537 355.882 301.876C364.597 297.215 370.136 288.917 385.863 275.784C398.414 265.324 419.248 254.79 435.191 248.067C438.771 246.555 442.109 245.255 445.068 244.168L439.582 241.244Z" fill="#455A64"/>
<path d="M445.068 244.131C442.109 245.218 438.772 246.518 435.191 248.03C419.248 254.753 398.415 265.287 385.863 275.746C370.136 288.88 364.597 297.177 355.882 301.838C347.168 306.499 341.642 304.088 325.915 307.749C313.377 310.698 292.543 322.407 276.6 332.741C273.007 335.066 269.656 337.327 266.724 339.389C265.756 344.659 266.005 350.059 267.454 355.234C267.454 355.234 270.858 352.435 272.574 358.596C274.29 364.757 275.371 377.728 278.668 383.488C280.071 386.222 282.264 388.544 285.004 390.199H285.085C286.066 390.75 287.126 391.17 288.233 391.448C288.844 391.59 289.462 391.702 290.084 391.786C291.925 391.988 293.788 391.934 295.61 391.623C295.921 391.623 296.232 391.523 296.542 391.448C296.853 391.373 297.515 391.248 298.015 391.123C298.515 390.999 299.029 390.849 299.555 390.699C301.229 390.199 302.863 389.593 304.446 388.887C305.122 388.612 305.797 388.287 306.541 387.949C307.284 387.612 308.256 387.1 309.162 386.612C329.428 375.803 337.845 360.92 342.844 347.549C347.843 334.178 346.519 319.808 355.855 314.822C356.144 314.666 356.442 314.524 356.747 314.397C357.014 314.28 357.289 314.179 357.571 314.097C365.07 311.873 364.205 326.156 368.88 333.654C370.533 336.563 372.983 339.019 375.987 340.776C376.53 341.069 377.094 341.328 377.675 341.551C377.969 341.674 378.272 341.778 378.581 341.863C378.891 341.963 379.202 342.051 379.526 342.126C379.851 342.201 380.094 342.263 380.391 342.313C380.485 342.331 380.581 342.331 380.675 342.313L381.323 342.413C381.569 342.451 381.817 342.476 382.066 342.488H382.58C385.506 342.611 388.432 342.238 391.213 341.389L392.01 341.151C395.688 339.985 399.224 338.469 402.562 336.628C422.829 325.806 429.787 310.198 433.084 300.914C436.38 291.629 437.475 277.483 439.191 269.498C440.906 261.513 444.311 260.663 444.311 260.663C446.77 250.379 445.068 244.131 445.068 244.131ZM337.602 340.351C336.411 346.878 334.05 353.175 330.617 358.983C325.473 367.545 317.833 374.598 308.567 379.34C297.583 385.075 291.165 383.613 287.315 379.927C287.075 379.706 286.849 379.472 286.639 379.227C286.416 378.997 286.209 378.755 286.018 378.502C285.827 378.275 285.651 378.037 285.491 377.79C285.342 377.578 285.193 377.353 285.058 377.128C284.937 376.956 284.829 376.776 284.734 376.59C284.629 376.433 284.534 376.271 284.45 376.103C284.302 375.828 284.153 375.541 284.018 375.266C283.611 374.452 283.255 373.618 282.951 372.767C282.761 372.229 282.586 371.692 282.424 371.18C282.14 370.242 281.91 369.343 281.721 368.543L281.599 368.031L281.478 367.543C279.897 360.933 278.006 347.287 281.478 342.113C284.95 336.94 294.151 328.555 309.229 322.02C309.743 321.77 310.283 321.545 310.837 321.32C313.083 320.389 315.383 319.575 317.728 318.883C318.633 318.608 319.525 318.371 320.43 318.146C322.647 317.581 324.904 317.163 327.185 316.896C327.901 316.809 328.536 316.746 329.239 316.709C329.98 316.652 330.724 316.631 331.468 316.646H331.914C332.184 316.627 332.455 316.627 332.725 316.646C334.376 316.62 335.982 317.144 337.251 318.121C340.169 320.995 339.291 331.142 337.602 340.351ZM430.354 287.868C429.125 294.341 426.477 308.311 415.195 319.783C411.715 323.318 407.674 326.343 403.211 328.755C390.443 335.753 383.201 334.266 379.081 330.355V330.28C378.918 330.13 378.77 329.98 378.635 329.83C378.459 329.655 378.297 329.467 378.148 329.292L377.905 329.005C377.689 328.73 377.473 328.443 377.284 328.155C377.094 327.868 376.838 327.48 376.635 327.118C376.527 326.956 376.432 326.781 376.338 326.606L376.189 326.306C376.108 326.156 376.041 326.006 375.973 325.856C375.906 325.706 375.851 325.618 375.811 325.506C375.129 323.976 374.604 322.391 374.244 320.77C372.568 313.36 371.663 304.175 374.69 297.989C377.716 291.804 389.551 280.495 401.036 272.997C403.666 271.273 406.134 269.781 408.44 268.523L409.318 268.049L410.264 267.549C411.142 267.086 412.007 266.661 412.831 266.299L413.763 265.862L414.979 265.324C415.668 265.012 416.33 264.737 416.992 264.487C418.343 263.962 419.559 263.525 420.708 263.238L421.586 262.988H421.816C422.005 262.988 422.207 262.875 422.41 262.838C422.613 262.8 423.018 262.688 423.302 262.625C423.585 262.563 424.031 262.475 424.369 262.413C424.949 262.307 425.536 262.232 426.126 262.188H426.436C427.803 262.01 429.197 262.151 430.49 262.6C433.773 263.937 431.908 279.633 430.354 287.868Z" fill="#37474F"/>
<path d="M337.602 340.351C336.41 346.878 334.05 353.175 330.617 358.983C325.473 367.544 317.833 374.598 308.567 379.339C297.583 385.075 291.165 383.613 287.314 379.927C291.111 380.764 296.191 380.002 303.082 376.403C312.353 371.668 319.995 364.613 325.131 356.046C328.564 350.239 330.925 343.941 332.117 337.415C333.589 329.367 334.454 320.607 332.616 316.559C334.267 316.533 335.874 317.056 337.143 318.033C340.169 320.995 339.291 331.142 337.602 340.351Z" fill="black"/>
<path d="M430.354 287.867C429.124 294.341 426.476 308.311 415.195 319.783C411.714 323.318 407.674 326.343 403.211 328.755C390.443 335.753 383.201 334.266 379.08 330.355C383.363 331.342 389.348 330.355 397.725 325.831C402.186 323.411 406.227 320.382 409.709 316.846C420.991 305.387 423.639 291.404 424.869 284.931C426.098 278.458 427.571 267.099 426.368 262.025C427.735 261.847 429.129 261.989 430.421 262.438C433.772 263.937 431.908 279.633 430.354 287.867Z" fill="black"/>
<path opacity="0.85" d="M337.602 340.351C336.41 346.878 334.05 353.175 330.617 358.983C325.473 367.544 317.833 374.597 308.567 379.339C297.583 385.075 291.165 383.613 287.314 379.927C287.075 379.706 286.849 379.472 286.639 379.227C286.416 378.997 286.209 378.755 286.017 378.502C285.826 378.275 285.65 378.037 285.49 377.79C285.342 377.577 285.193 377.352 285.058 377.127C284.937 376.955 284.829 376.776 284.734 376.59C284.629 376.433 284.534 376.27 284.45 376.103C284.302 375.828 284.153 375.54 284.018 375.266C283.611 374.452 283.255 373.617 282.95 372.766C282.761 372.229 282.586 371.692 282.424 371.179C282.14 370.242 281.91 369.342 281.721 368.543L281.599 368.03L281.478 367.543C279.897 360.932 278.005 347.287 281.478 342.113C284.95 336.94 294.151 328.555 309.229 322.019C309.743 321.769 310.283 321.544 310.837 321.319C313.083 320.389 315.383 319.575 317.727 318.883C318.633 318.608 319.524 318.37 320.43 318.145C322.646 317.581 324.904 317.163 327.185 316.896C327.901 316.808 328.536 316.746 329.239 316.708C329.98 316.651 330.724 316.63 331.468 316.646H331.914C332.184 316.626 332.455 316.626 332.725 316.646C334.376 316.62 335.982 317.143 337.251 318.12C340.169 320.995 339.291 331.142 337.602 340.351Z" fill="#F5CB99"/>
<path opacity="0.85" d="M430.354 287.868C429.125 294.341 426.477 308.311 415.195 319.783C411.715 323.318 407.674 326.343 403.211 328.755C390.443 335.753 383.201 334.266 379.081 330.355V330.28C378.918 330.13 378.77 329.98 378.635 329.83C378.459 329.655 378.297 329.467 378.148 329.292L377.905 329.005C377.689 328.73 377.473 328.443 377.284 328.155C377.094 327.868 376.838 327.481 376.635 327.118C376.527 326.956 376.432 326.781 376.338 326.606L376.189 326.306C376.108 326.156 376.041 326.006 375.973 325.856C375.905 325.706 375.851 325.619 375.811 325.506C375.129 323.977 374.604 322.391 374.244 320.77C372.568 313.36 371.663 304.175 374.689 297.99C377.716 291.804 389.551 280.495 401.036 272.997C403.666 271.273 406.134 269.782 408.44 268.524L409.318 268.049L410.264 267.549C411.142 267.087 412.007 266.662 412.831 266.299L413.763 265.862L414.979 265.325C415.668 265.012 416.33 264.737 416.992 264.487C418.343 263.962 419.559 263.525 420.708 263.238L421.586 262.988H421.815C422.005 262.988 422.207 262.875 422.41 262.838C422.613 262.8 423.018 262.688 423.302 262.625C423.585 262.563 424.031 262.475 424.369 262.413C424.949 262.307 425.536 262.232 426.125 262.188H426.436C427.803 262.01 429.197 262.152 430.49 262.6C433.773 263.937 431.908 279.633 430.354 287.868Z" fill="#F5CB99"/>
<path d="M171.836 153.671C171.006 153.673 170.19 153.47 169.472 153.084L85.353 108.16C82.3604 106.563 78.9662 105.723 75.5115 105.724C72.0567 105.725 68.6631 106.567 65.6715 108.165C62.6799 109.763 60.1957 112.061 58.4685 114.828C56.7413 117.596 55.8319 120.735 55.8316 123.93V125.842C55.8316 127.002 55.3334 128.114 54.4466 128.935C53.5598 129.755 52.357 130.216 51.1028 130.216C49.8487 130.216 48.6459 129.755 47.7591 128.935C46.8722 128.114 46.374 127.002 46.374 125.842V123.93C46.3747 119.199 47.7215 114.552 50.279 110.456C52.8365 106.359 56.5147 102.957 60.9439 100.592C65.3732 98.226 70.3976 96.9803 75.5122 96.9795C80.6269 96.9787 85.6517 98.2229 90.0818 100.587L174.201 145.573C175.101 146.055 175.805 146.798 176.203 147.687C176.601 148.577 176.671 149.562 176.401 150.492C176.132 151.421 175.539 152.243 174.713 152.829C173.888 153.415 172.877 153.733 171.836 153.733V153.671Z" fill="#37474F"/>
<path d="M317.321 75.9696C316.495 75.9699 315.684 75.7672 314.97 75.3823L230.852 30.446C227.858 28.8648 224.468 28.038 221.02 28.0482C217.573 28.0584 214.189 28.9052 211.206 30.5041C208.223 32.1029 205.746 34.3978 204.023 37.1594C202.299 39.921 201.389 43.0525 201.384 46.2412V48.1531C201.384 49.313 200.886 50.4255 199.999 51.2457C199.113 52.0659 197.91 52.5267 196.656 52.5267C195.401 52.5267 194.199 52.0659 193.312 51.2457C192.425 50.4255 191.927 49.313 191.927 48.1531V46.2412C191.946 41.5237 193.304 36.8935 195.863 32.8129C198.423 28.7324 202.095 25.3443 206.513 22.9868C210.931 20.6294 215.941 19.3852 221.041 19.3784C226.142 19.3717 231.155 20.6026 235.58 22.9483L319.699 67.8096C320.601 68.2918 321.305 69.0359 321.703 69.9264C322.101 70.8169 322.169 71.8039 321.898 72.7341C321.627 73.6644 321.032 74.4858 320.204 75.0708C319.376 75.6559 318.363 75.9718 317.321 75.9696Z" fill="#37474F"/>
<path d="M324.914 61.3616L319.442 58.4375C315.511 56.2381 291.326 68.8968 281.612 75.5322C264.772 87.2304 253.276 104.335 249.388 123.48C248 122.73 246.412 122.355 244.805 122.397C243.198 122.439 241.636 122.896 240.296 123.718C235.094 126.492 231.203 133.19 231.203 133.19C230.276 129.215 228.324 125.507 225.515 122.38L226.866 122.093L221.259 119.094C215.76 116.182 208.342 116.17 199.06 119.744C189.13 123.568 164.04 137.238 160.973 143.486C155.866 153.808 158.366 176.151 160.973 187.448C163.202 197.12 167.877 204.068 174.227 207.504L180.091 210.641L179.807 209.529C185.441 210.678 191.967 209.529 199.074 205.78C217.719 195.783 232.851 169.104 232.851 146.111C232.851 146.111 235.216 135.801 240.417 133.027C245.619 130.253 247.983 138.026 247.983 138.026C247.983 150.522 252.469 159.419 259.603 163.255L265.25 166.267L265.52 165.18C270.33 165.867 275.856 164.767 281.734 161.631C300.379 151.634 315.241 127.366 319.821 102.624C321.969 91.0275 324.036 71.9958 321.834 62.9361L324.914 61.3616ZM198.952 196.245C184.55 203.93 172.876 195.771 172.876 178.001C172.876 160.231 184.55 139.613 198.952 131.915C213.355 124.217 225.028 132.39 225.028 150.159C225.028 167.929 213.355 188.548 198.952 196.245ZM281.612 152.109C267.209 159.794 255.522 151.634 255.522 133.877C255.522 116.12 267.209 95.4761 281.612 87.791C296.015 80.1058 307.688 88.2533 307.688 106.023C307.688 123.792 295.961 144.411 281.612 152.109Z" fill="#F5CB99"/>
<path opacity="0.4" d="M324.915 61.3617C320.862 59.2373 296.785 71.8585 287.084 78.4815C283.073 81.2165 279.35 84.2959 275.965 87.6787L270.479 84.7546C273.867 81.3708 277.59 78.2874 281.599 75.5449C291.313 68.9094 315.498 56.2633 319.429 58.4501L324.915 61.3617Z" fill="white"/>
<path opacity="0.4" d="M226.812 122.055C221.299 119.056 213.828 119.006 204.465 122.618C194.534 126.442 169.444 140.112 166.378 146.361L160.852 143.436C163.919 137.188 189.008 123.505 198.939 119.694C208.221 116.12 215.638 116.145 221.137 119.056L226.812 122.055Z" fill="white"/>
<path opacity="0.4" d="M254.213 126.042C252.866 125.474 251.387 125.229 249.911 125.329C248.435 125.43 247.01 125.873 245.768 126.617C244.728 127.183 243.763 127.858 242.891 128.629L237.392 125.692C238.272 124.925 239.242 124.25 240.283 123.68C241.623 122.859 243.186 122.402 244.793 122.36C246.4 122.318 247.987 122.693 249.376 123.443L254.213 126.042Z" fill="white"/>
<path opacity="0.05" d="M242.89 128.629C240.432 130.829 238.342 133.356 236.689 136.126C236.09 133.759 235.183 131.468 233.986 129.303C235.017 128.02 236.17 126.823 237.432 125.729L242.89 128.629Z" fill="black"/>
<path opacity="0.15" d="M179.416 210.304L174.106 207.467C167.756 204.031 163.081 197.083 160.852 187.411C158.244 176.164 155.745 153.784 160.852 143.449L166.338 146.373C161.23 156.708 163.73 179.051 166.338 190.347C168.553 199.907 173.147 206.817 179.416 210.304Z" fill="black"/>
<path opacity="0.15" d="M264.548 165.917L259.481 163.205C252.347 159.369 247.862 150.534 247.862 137.975C247.58 137.111 247.209 136.274 246.754 135.476C251.28 134.077 253.347 140.887 253.347 140.887C253.334 153.221 257.657 161.968 264.548 165.917Z" fill="black"/>
<path opacity="0.05" d="M275.978 87.6783C265.176 98.5168 257.87 111.936 254.888 126.416H254.807L254.591 126.304L254.239 126.129L249.416 123.542C252.412 109.064 259.721 95.6466 270.52 84.8042L275.978 87.6783Z" fill="black"/>
<path d="M325.185 61.5366C322.118 58.6 297.028 71.6835 287.097 78.4689C270.257 90.1671 258.762 107.272 254.874 126.417C253.486 125.667 251.898 125.292 250.291 125.334C248.684 125.376 247.122 125.833 245.781 126.654C240.579 129.428 236.688 136.126 236.688 136.126C236.09 133.763 235.182 131.476 233.986 129.316C228.771 120.194 218.854 117.12 204.478 122.655C194.548 126.479 169.458 140.15 166.391 146.398C161.284 156.733 163.784 179.076 166.391 190.36C170.958 210.216 185.833 218.639 204.478 208.679C223.123 198.72 238.256 172.015 238.256 149.022C238.256 149.022 240.62 138.701 245.822 135.926C251.023 133.152 253.388 140.925 253.388 140.925C253.388 163.918 268.506 174.49 287.165 164.53C305.824 154.571 320.686 130.266 325.252 105.536C327.779 91.4399 330.292 66.4226 325.185 61.5366ZM204.438 199.145C190.035 206.83 178.362 198.67 178.362 180.913C178.362 163.156 190.035 142.512 204.438 134.827C218.84 127.142 230.514 135.302 230.514 153.059C230.514 170.816 218.84 191.484 204.438 199.145ZM287.097 155.008C272.695 162.706 261.008 154.533 261.008 136.776C261.008 119.019 272.695 98.3753 287.097 90.6902C301.5 83.005 313.173 91.165 313.173 108.922C313.173 126.679 301.5 147.348 287.097 155.033V155.008Z" fill="#F5CB99"/>
<path d="M168.675 150.984C168.693 149.888 168.988 148.81 169.537 147.838C170.086 146.866 170.873 146.026 171.836 145.386C173.579 144.461 174.998 145.448 174.998 147.598C174.98 148.694 174.685 149.772 174.136 150.744C173.587 151.716 172.799 152.556 171.836 153.196C170.093 154.158 168.675 153.146 168.675 150.984Z" fill="#37474F"/>
<path d="M320.497 69.9087C320.497 67.7594 319.078 66.7597 317.335 67.6969C316.372 68.3369 315.585 69.1766 315.036 70.1488C314.487 71.121 314.192 72.1985 314.174 73.2952C314.174 75.4445 315.525 76.4317 317.335 75.507C318.298 74.867 319.086 74.0273 319.635 73.0551C320.184 72.083 320.479 71.0054 320.497 69.9087Z" fill="#37474F"/>
<path opacity="0.4" d="M230.514 153.083C230.514 170.853 218.841 191.484 204.438 199.169C196.589 203.368 189.576 202.856 184.767 198.632C188.82 199.732 193.724 199.032 198.953 196.245C213.356 188.547 225.029 167.916 225.029 150.159C225.029 142.074 222.611 135.976 218.611 132.452C225.772 134.352 230.514 141.774 230.514 153.083Z" fill="#F5CB99"/>
<path opacity="0.4" d="M313.174 108.96C313.174 126.717 301.501 147.348 287.098 155.046C279.262 159.219 272.236 158.719 267.453 154.521C271.506 155.608 276.384 154.896 281.599 152.109C296.002 144.424 307.689 123.78 307.689 106.023C307.689 97.938 305.257 91.8273 301.257 88.3159C308.432 90.2153 313.174 97.6256 313.174 108.96Z" fill="#F5CB99"/>
<g opacity="0.3">
<path opacity="0.4" d="M230.514 153.083C230.514 170.853 218.841 191.484 204.438 199.169C196.589 203.368 189.576 202.856 184.767 198.632C188.82 199.732 193.724 199.032 198.953 196.245C213.356 188.547 225.029 167.916 225.029 150.159C225.029 142.074 222.611 135.976 218.611 132.452C225.772 134.352 230.514 141.774 230.514 153.083Z" fill="black"/>
</g>
<g opacity="0.3">
<path opacity="0.4" d="M313.174 108.96C313.174 126.717 301.501 147.348 287.098 155.046C279.262 159.219 272.236 158.719 267.453 154.521C271.506 155.608 276.384 154.896 281.599 152.109C296.002 144.424 307.689 123.78 307.689 106.023C307.689 97.938 305.257 91.8273 301.257 88.3159C308.432 90.2153 313.174 97.6256 313.174 108.96Z" fill="black"/>
</g>
<path opacity="0.2" d="M225.286 175.211C233.942 156.395 231.631 137.47 220.123 132.941C208.616 128.412 192.269 139.994 183.613 158.811C174.956 177.627 177.267 196.552 188.775 201.081C200.283 205.61 216.629 194.027 225.286 175.211Z" fill="#F5CB99"/>
<path opacity="0.2" d="M307.409 130.84C316.032 112.027 313.695 93.1192 302.189 88.6082C290.684 84.0971 274.366 95.6912 265.744 114.504C257.121 133.317 259.458 152.225 270.964 156.736C282.469 161.247 298.786 149.653 307.409 130.84Z" fill="#F5CB99"/>
<path d="M442.108 75.7949C444.095 77.3195 446.364 78.0942 448.972 80.431C450.614 82.1746 452.699 83.5142 455.038 84.3298C458.038 85.4295 460.875 85.1046 469.225 83.88C479.439 82.3679 483.844 80.7684 488.248 77.2945C493.396 73.2332 504.921 60.9745 510.501 56.1509C516.391 51.065 524.484 53.0269 524.484 53.0269C521.991 60.5507 518.283 67.6831 513.486 74.1829C509.028 80.0561 500.692 85.6794 496.922 88.591C490.883 93.2271 487.681 95.064 474.426 95.9888C464.415 96.6886 463.091 96.9135 454.903 96.6886C451.944 96.6011 450.093 96.5761 445.256 96.2012C443.151 96.0817 441.067 95.7464 439.041 95.2015C436.758 94.7177 434.567 93.9172 432.543 92.8272C429.893 91.2395 427.756 89.0206 426.355 86.4042C425.588 84.9665 425.195 83.3834 425.206 81.7806C425.245 80.1842 425.885 78.6504 427.017 77.4444C427.243 77.197 427.53 77.004 427.854 76.8821C428.484 76.775 429.134 76.9007 429.665 77.232C432.799 78.7315 435.947 80.7684 439.231 81.9306C442 82.9178 444.108 83.2677 443.905 82.7553C443.703 82.243 442.027 81.7556 440.311 79.9687C438.596 78.1817 438.163 75.67 439.271 74.8827C440.379 74.0955 440.122 74.2829 442.108 75.7949Z" fill="#FFA8A7"/>
<path d="M526.862 52.9389C523.71 51.5386 520.134 51.1771 516.729 51.9142C511.568 53.2888 507.447 56.4129 502.529 61.2864C497.611 66.1599 489.315 74.1824 489.315 74.1824C489.315 74.1824 493.369 83.742 502.57 87.141L521.823 70.671L526.862 52.9389Z" fill="#E0E0E0"/>
<path d="M555.141 271.56H543.467V290.042H555.141V271.56Z" fill="#FFA8A7"/>
<path d="M522.85 276.208L511.19 276.583L510.609 257.027L522.85 256.652V276.208Z" fill="#FFA8A7"/>
<path d="M560.112 133.602C560.112 143.899 558.14 203.856 558.14 203.856C558.41 206.817 561.504 212.091 561.747 222.775C562.085 238.258 555.64 280.795 555.64 280.795C553.624 281.711 551.416 282.207 549.17 282.248C546.924 282.289 544.696 281.874 542.643 281.032C542.643 281.032 537.36 223.375 535.266 208.042C533.442 194.658 530.348 158.307 530.348 158.307L524.849 202.044C526.191 207.652 526.678 213.406 526.295 219.138C525.754 226.224 523.593 270.135 523.593 270.135C521.555 271.204 519.288 271.844 516.953 272.01C514.618 272.176 512.272 271.865 510.082 271.098C510.082 271.098 501.853 208.492 501.718 201.981C501.556 194.558 504.758 118.832 504.758 118.832L560.112 133.602Z" fill="#37474F"/>
<path d="M552.452 57.7751C555.022 58.8306 557.041 60.7785 558.073 63.1985C559.27 66.179 559.847 69.3418 559.775 72.5206V93.6642L560.113 133.652C543.359 141.812 522.066 142.399 504.205 130.29C504.205 130.29 505.204 78.8937 505.204 70.4838C505.204 70.1089 505.204 69.7215 505.204 69.3341C505.853 57.3253 518.634 49.0778 531.226 52.0769L541.805 54.5761L552.425 57.8126L552.452 57.7751Z" fill="#F0F0F0"/>
<path d="M543.467 284.706V283.156C542.359 283.606 539.765 292.766 535.131 296.677C531.456 299.776 526.43 303.362 525.16 306.824C523.89 310.285 532.145 312.41 535.59 311.822C539.576 311.173 546.507 308.573 548.25 306.162C549.993 303.75 550.804 300.188 552.209 298.414C553.614 296.64 556.883 294.665 557.613 292.628C558.032 291.504 557.532 289.042 556.951 286.967C556.37 284.893 555.816 282.956 555.114 283.131V284.318C553.448 285.522 551.39 286.165 549.277 286.143C547.601 286.218 543.454 285.905 543.467 284.706Z" fill="#263238"/>
<path d="M511.068 273.247C510.46 273.247 509.974 274.059 508.636 275.396C506.639 277.263 504.319 278.809 501.773 279.97C497.395 281.994 488.897 285.106 485.06 286.705C482.655 287.705 482.763 290.392 485.249 291.916C487.735 293.441 493.734 294.54 500.921 293.053C504.84 292.241 509.947 288.892 513.176 289.08C516.405 289.267 522.458 289.217 524.836 287.692C527.214 286.168 526.268 282.931 525.592 280.132C524.863 277.096 523.944 272.347 522.89 272.547V273.597C521.539 275.571 514.257 276.371 511.163 274.921L511.068 273.247Z" fill="#263238"/>
<path d="M530.348 158.307C524.326 156.567 518.791 153.623 514.135 149.685C514.135 149.685 517.27 155.12 526.592 160.169L525.349 198.32L530.348 158.307Z" fill="#263238"/>
<path d="M550.195 29.0215C550.195 29.0215 547.601 40.2681 546.561 42.1925C545.858 43.3336 544.714 44.1863 543.359 44.5792L543.535 36.6192L550.195 29.0215Z" fill="#263238"/>
<path d="M546.94 12.8263C547.849 12.7307 548.771 12.8272 549.634 13.1086C550.498 13.39 551.281 13.8489 551.925 14.4508C554.06 16.4752 552.871 22.8108 550.196 29.0214L545.305 29.5462L546.94 12.8263Z" fill="#263238"/>
<path d="M543.832 29.5463C544.818 30.0961 546.21 28.2967 547.426 27.172C548.642 26.0474 552.601 24.3979 554.573 28.2467C556.546 32.0955 552.83 37.3439 549.709 38.2436C544.305 39.8057 543.535 36.6191 543.535 36.6191L543.359 55.0135C534.347 64.5856 518.567 58.9623 525.66 54.0513V48.603C523.266 48.959 520.839 49.0763 518.418 48.9529C514.473 48.3781 511.987 45.5039 510.798 41.5551C508.866 35.2071 508.096 30.0836 509.771 17.6C511.554 3.91663 528.767 3.76667 538.049 9.17752C547.331 14.5884 543.832 29.5463 543.832 29.5463Z" fill="#FFA8A7"/>
<path d="M530.159 32.6827H529.308C527.902 32.6181 526.577 32.0561 525.606 31.1129C524.636 30.1697 524.095 28.9175 524.095 27.6155C524.095 26.3136 524.636 25.0614 525.606 24.1182C526.577 23.175 527.902 22.6129 529.308 22.5483H530.159C531.565 22.6129 532.89 23.175 533.861 24.1182C534.831 25.0614 535.372 26.3136 535.372 27.6155C535.372 28.9175 534.831 30.1697 533.861 31.1129C532.89 32.0561 531.565 32.6181 530.159 32.6827ZM529.308 23.4106C528.1 23.4106 526.942 23.8543 526.088 24.644C525.235 25.4338 524.755 26.5049 524.755 27.6218C524.755 28.7387 525.235 29.8098 526.088 30.5996C526.942 31.3893 528.1 31.833 529.308 31.833H530.159C530.757 31.833 531.349 31.7241 531.902 31.5124C532.454 31.3008 532.956 30.9906 533.379 30.5996C533.802 30.2085 534.137 29.7443 534.366 29.2334C534.595 28.7224 534.712 28.1748 534.712 27.6218C534.712 27.0688 534.595 26.5212 534.366 26.0102C534.137 25.4993 533.802 25.0351 533.379 24.644C532.956 24.253 532.454 23.9428 531.902 23.7311C531.349 23.5195 530.757 23.4106 530.159 23.4106H529.308Z" fill="#263238"/>
<path d="M513.486 32.6826H512.649C511.906 32.7168 511.164 32.611 510.467 32.3717C509.771 32.1325 509.134 31.7647 508.595 31.2908C508.057 30.8169 507.628 30.2468 507.335 29.615C507.042 28.9832 506.891 28.3029 506.891 27.6154C506.891 26.928 507.042 26.2477 507.335 25.6159C507.628 24.9841 508.057 24.4139 508.595 23.9401C509.134 23.4662 509.771 23.0984 510.467 22.8592C511.164 22.6199 511.906 22.5141 512.649 22.5482H513.486C514.229 22.5141 514.971 22.6199 515.668 22.8592C516.364 23.0984 517.001 23.4662 517.54 23.9401C518.078 24.4139 518.507 24.9841 518.8 25.6159C519.093 26.2477 519.244 26.928 519.244 27.6154C519.244 28.3029 519.093 28.9832 518.8 29.615C518.507 30.2468 518.078 30.8169 517.54 31.2908C517.001 31.7647 516.364 32.1325 515.668 32.3717C514.971 32.611 514.229 32.7168 513.486 32.6826ZM512.649 23.4105C511.441 23.4105 510.283 23.8542 509.429 24.6439C508.575 25.4337 508.096 26.5048 508.096 27.6217C508.096 28.7386 508.575 29.8097 509.429 30.5995C510.283 31.3892 511.441 31.8329 512.649 31.8329H513.486C514.084 31.8329 514.676 31.724 515.229 31.5123C515.781 31.3007 516.283 30.9905 516.706 30.5995C517.129 30.2084 517.464 29.7442 517.693 29.2333C517.922 28.7223 518.04 28.1747 518.04 27.6217C518.04 27.0687 517.922 26.5211 517.693 26.0101C517.464 25.4992 517.129 25.035 516.706 24.6439C516.283 24.2529 515.781 23.9427 515.229 23.731C514.676 23.5194 514.084 23.4105 513.486 23.4105H512.649Z" fill="#263238"/>
<path d="M523.903 26.622C523.572 26.1988 523.138 25.8539 522.635 25.615C522.133 25.3762 521.577 25.2503 521.012 25.2474C520.545 25.2001 520.073 25.2559 519.633 25.4101C519.194 25.5643 518.801 25.8126 518.485 26.1346L517.756 25.6223C518.153 25.1777 518.664 24.831 519.241 24.613C519.819 24.3949 520.446 24.3124 521.066 24.3727C521.78 24.3822 522.482 24.548 523.114 24.8564C523.745 25.1648 524.289 25.6071 524.7 26.1471L523.903 26.622Z" fill="#263238"/>
<path d="M546.777 26.5723H535.131V27.422H546.777V26.5723Z" fill="#263238"/>
<path d="M543.832 31.0833C544.318 31.0833 546.21 28.2092 547.426 27.172C549.115 25.7474 546.939 12.8264 546.939 12.8264C547.383 11.7099 547.464 10.498 547.174 9.33931C546.884 8.18061 546.234 7.12549 545.305 6.30335C542.981 3.92907 539.103 3.66665 532.469 2.70444C528.997 2.2046 523.728 1.30487 520.309 0.705056C516.162 -0.0072265 512.73 -0.756999 509.811 1.59228C508.654 2.50457 507.831 3.72641 507.456 5.08941C507.081 6.4524 507.172 7.88944 507.717 9.20246C508.57 10.8264 510.057 12.0904 511.879 12.7389C511.879 12.7389 513.689 14.2134 519.985 14.9257C525.792 15.3327 531.628 15.2281 537.414 14.6133C539.238 14.3884 539.616 16.0254 540.603 20.4865C541.454 24.4103 542.17 31.0458 543.832 31.0833Z" fill="#263238"/>
<path d="M546.926 13.8387L552.871 10.8896C552.682 10.519 552.413 10.1879 552.081 9.9163C551.749 9.64473 551.361 9.43839 550.94 9.30983C550.519 9.18127 550.075 9.13317 549.633 9.16845C549.192 9.20372 548.763 9.32164 548.372 9.51503C547.575 9.92495 546.981 10.6032 546.711 11.4086C546.442 12.2141 546.519 13.0845 546.926 13.8387Z" fill="#263238"/>
<path d="M525.646 48.603C525.646 48.603 534.456 46.966 537.536 45.4415C539.368 44.5792 540.875 43.2244 541.86 41.5552C541.392 43.2177 540.57 44.777 539.441 46.1413C537.158 48.8155 525.646 50.7774 525.646 50.7774V48.603Z" fill="#F28F8F"/>
<path d="M527.795 27.5095C527.808 27.8304 527.923 28.1405 528.125 28.4014C528.328 28.6622 528.608 28.8623 528.933 28.9767C529.257 29.091 529.611 29.1147 529.949 29.0446C530.288 28.9746 530.597 28.8139 530.838 28.5827C531.079 28.3515 531.241 28.0599 531.304 27.7441C531.367 27.4284 531.328 27.1025 531.192 26.807C531.057 26.5115 530.83 26.2595 530.541 26.0822C530.251 25.9049 529.912 25.8103 529.565 25.8101C529.087 25.8199 528.633 26.0041 528.301 26.3225C527.969 26.6408 527.787 27.0675 527.795 27.5095Z" fill="#263238"/>
<path d="M530.632 20.7489L534.415 22.6733C534.684 22.1955 534.743 21.6399 534.579 21.1228C534.415 20.6058 534.042 20.1673 533.537 19.8992C533.287 19.7726 533.012 19.6941 532.729 19.6685C532.445 19.6428 532.159 19.6705 531.888 19.7499C531.616 19.8293 531.365 19.9588 531.149 20.1305C530.933 20.3022 530.757 20.5126 530.632 20.7489Z" fill="#263238"/>
<path d="M526.484 38.7935L522.431 40.193C522.519 40.4393 522.659 40.667 522.843 40.8631C523.027 41.0592 523.251 41.2199 523.502 41.336C523.753 41.452 524.026 41.5212 524.306 41.5395C524.586 41.5578 524.867 41.5249 525.133 41.4426C525.687 41.251 526.138 40.8668 526.39 40.372C526.643 39.8772 526.676 39.3108 526.484 38.7935Z" fill="#F28F8F"/>
<path d="M511.595 22.1859L515.04 19.6867C514.879 19.4717 514.673 19.2894 514.433 19.1507C514.193 19.0121 513.926 18.92 513.646 18.8803C513.367 18.8405 513.082 18.8539 512.808 18.9195C512.534 18.985 512.278 19.1015 512.055 19.2618C511.577 19.5949 511.261 20.0889 511.174 20.6365C511.088 21.184 511.24 21.7409 511.595 22.1859Z" fill="#263238"/>
<path d="M513.108 27.0473C513.098 27.4826 513.273 27.9044 513.597 28.2204C513.921 28.5364 514.367 28.7212 514.838 28.7342C515.204 28.7467 515.567 28.6574 515.878 28.4778C516.189 28.2983 516.435 28.0367 516.584 27.7267C516.733 27.4167 516.779 27.0726 516.714 26.7385C516.65 26.4045 516.479 26.0959 516.224 25.8524C515.969 25.6089 515.64 25.4417 515.281 25.3723C514.922 25.303 514.549 25.3346 514.209 25.4631C513.87 25.5916 513.58 25.8112 513.376 26.0935C513.173 26.3758 513.065 26.708 513.068 27.0473H513.108Z" fill="#263238"/>
<path d="M521.836 25.7349L521.634 35.6443L515.311 34.3447L521.836 25.7349Z" fill="#F28F8F"/>
<path d="M577.366 112.921C573.65 72.9329 566.111 59.9744 553.722 58.3374C549.439 61.8113 548.412 74.0201 552.884 82.1551C552.884 82.1551 562.504 107.26 563.058 116.382C563.315 125.126 562.654 133.873 561.085 142.499C560.855 143.675 560.161 144.73 559.14 145.461C556.437 147.46 556.6 149.472 554.654 151.834C553.141 153.683 551.722 154.246 551.952 154.758C552.354 155.307 552.966 155.696 553.665 155.846C554.363 155.997 555.098 155.898 555.721 155.57C556.935 154.999 558.058 154.275 559.059 153.421C558.235 155.829 557.057 158.12 555.559 160.231C552.033 165.23 552.195 168.166 560.477 167.367C565.652 166.879 569.435 163.48 572.043 152.521C572.786 149.36 574.556 143.586 575.299 139.538C577.474 127.916 577.96 119.356 577.366 112.921Z" fill="#FFA8A7"/>
<path d="M550.196 57.1006C550.196 57.1006 559.235 57.6879 563.788 62.6364C568.341 67.5849 572.705 76.1698 575.745 92.4398C575.745 92.4398 570.043 99.9375 555.141 97.9131C555.141 97.9131 548.655 77.7193 548.074 69.3094C547.439 60.1372 550.196 57.1006 550.196 57.1006Z" fill="#E0E0E0"/>
<path d="M63.5743 479.509V477.96C64.2363 479.772 67.2898 487.582 71.9375 491.505C75.626 494.617 80.6521 498.203 81.9356 501.677C83.2191 505.151 74.9234 506.501 71.4782 505.939C67.4249 505.276 62.3043 503.177 59.4805 499.978C57.4944 497.716 56.2379 495.054 54.8192 493.28C53.4006 491.505 50.1309 489.531 49.4149 487.482C48.996 486.344 49.4959 483.883 50.0769 481.796C50.6579 479.709 51.2118 477.785 51.9144 477.96V479.147C53.5854 480.349 55.6476 480.992 57.7646 480.971C59.521 481.034 63.5743 480.721 63.5743 479.509Z" fill="#263238"/>
<path d="M75.3149 494.242C74.1665 493.292 73.0181 492.368 71.9777 491.493C68.7351 488.756 66.2626 484.12 64.844 480.959C64.0257 479.171 63.5942 477.252 63.574 475.31V469.062H51.9141V479.059V479.322C52.468 481.571 57.8318 487.557 60.8853 491.455C62.9254 494.067 66.8166 497.391 71.4508 497.966C75.9229 498.603 78.1657 497.329 75.3149 494.242Z" fill="#FFA8A7"/>
<path d="M109.227 468.85V467.3C109.889 469.112 112.943 476.922 117.591 480.834C121.279 483.958 126.305 487.544 127.589 491.018C128.872 494.492 120.59 495.842 117.145 495.267C113.091 494.617 107.957 492.518 105.134 489.306C103.147 487.057 101.891 484.383 100.472 482.621C99.0537 480.859 95.7975 478.872 95.068 476.81C94.6491 475.685 95.149 473.224 95.7435 471.137C96.338 469.05 96.8649 467.125 97.581 467.3V468.475C99.2402 469.69 101.302 470.339 103.418 470.312C105.093 470.312 109.241 470.05 109.227 468.85Z" fill="#263238"/>
<path d="M120.927 483.583C119.779 482.633 118.631 481.708 117.59 480.834C114.348 478.097 111.875 473.461 110.456 470.287C109.645 468.485 109.227 466.553 109.227 464.601V458.428H97.54V468.425V468.687C98.1075 470.937 103.471 476.922 106.511 480.821C108.565 483.433 112.443 486.757 117.09 487.332C121.535 487.944 123.792 486.657 120.927 483.583Z" fill="#FFA8A7"/>
<path d="M54.2377 311.41C45.1719 329.717 54.5755 394.235 54.5755 394.235C54.3052 397.209 50.6303 403.058 49.2522 416.141C47.6444 431.599 51.7922 470.412 51.7922 470.412C53.576 471.369 55.5857 471.908 57.6462 471.982C59.7067 472.056 61.7556 471.663 63.6143 470.837C63.6143 470.837 74.7608 412.392 76.8549 397.022C78.6789 383.613 82.2593 354.122 82.2593 354.122L92.2439 396.947C90.7835 401.271 89.7258 405.702 89.0823 410.193C88.1365 419.228 97.6077 461.315 97.6077 461.315C97.6077 461.315 101.661 462.689 109.295 461.64C109.295 461.64 112.645 405.794 113.524 394.897C115.01 376.616 109.754 319.558 106.133 308.674L54.2377 311.41Z" fill="#37474F"/>
<path d="M82.1924 354.097L85.1918 337.115C85.1918 337.115 97.6489 334.728 103.296 329.817C103.296 329.817 97.3651 336.628 88.5695 338.865L85.1918 351.961L90.988 391.586L82.1924 354.097Z" fill="#263238"/>
<path d="M88.7848 247.28C88.7848 247.28 98.3775 246.031 104.471 253.441C109.146 259.127 127.075 280.67 127.075 280.67C127.075 280.67 153.475 268.449 154.772 266.999C156.069 265.55 155.339 262.625 154.988 261.013C154.637 259.401 154.042 255.815 153.637 254.765C152.962 253.003 155.772 253.516 157.42 255.115C159.068 256.715 159.812 259.964 160.636 260.526C161.46 261.088 164.108 258.027 164.5 257.639C165.959 256.227 168.094 252.803 170.58 253.241C170.989 253.324 171.371 253.493 171.697 253.736C172.023 253.979 172.283 254.289 172.458 254.64C172.753 255.717 173.261 256.734 173.957 257.639C174.411 258.007 174.81 258.427 175.146 258.889C175.498 259.526 175.295 260.139 175.498 260.801C175.781 261.713 177.011 262.151 177.362 263.05C177.619 263.7 177.362 264.437 177.484 265.112C177.565 265.55 177.835 265.949 177.916 266.362C177.946 266.799 177.875 267.237 177.707 267.646C177.539 268.056 177.279 268.427 176.943 268.736C174.795 271.085 171.863 271.985 169.067 273.422C166.729 274.672 164.324 275.147 161.636 276.246C158.947 277.346 127.75 297.352 122.819 294.828C117.887 292.304 92.3922 264.837 92.3922 264.837C85.0423 253.678 88.7848 247.28 88.7848 247.28Z" fill="#FFA8A7"/>
<path d="M70.2347 247.78C58.6153 248.517 57.8047 253.715 54.8863 259.389C52.7526 263.765 52.5586 268.74 54.3459 273.247L62.4524 294.915C62.4524 294.915 58.6558 303.4 54.2513 311.41C74.5176 321.895 99.9722 316.409 106.079 308.724C106.336 307.099 104.728 294.403 103.796 286.105C107.376 277.808 108.322 272.535 106.809 267.049C104.012 256.852 93.1221 246.93 88.3123 247.292L70.2347 247.78Z" fill="#F5CB99"/>
<path d="M84.0563 237.883H75.4903C72.6492 237.896 69.8332 237.391 67.2032 236.397C64.5733 235.402 62.181 233.939 60.1633 232.089C58.1455 230.239 56.5418 228.039 55.4439 225.615C54.346 223.192 53.7754 220.592 53.7648 217.964C53.7397 211.608 56.4435 205.503 61.2823 200.99C66.1211 196.478 72.6989 193.926 79.5706 193.896C82.9846 193.885 86.3673 194.497 89.5248 195.698C92.6823 196.898 95.5523 198.664 97.97 200.893C100.388 203.122 102.306 205.771 103.614 208.688C104.922 211.604 105.594 214.731 105.593 217.889C105.593 223.179 103.326 228.253 99.2897 232C95.2532 235.748 89.7755 237.863 84.0563 237.883Z" fill="#263238"/>
<path d="M72.8562 188.335C76.5581 193.334 72.6265 196.808 67.1816 200.232C61.7367 203.656 56.8322 205.768 53.1302 200.719C49.4283 195.671 51.4144 190.06 56.9133 186.649C62.4122 183.237 69.1542 183.3 72.8562 188.335Z" fill="#263238"/>
<path d="M59.5206 203.918L54.0352 207.667C53.7516 207.346 53.5414 206.975 53.4174 206.577C53.2934 206.178 53.2581 205.761 53.3136 205.35C53.3692 204.938 53.5145 204.542 53.7407 204.184C53.967 203.826 54.2694 203.515 54.6296 203.268C55.3779 202.772 56.3048 202.562 57.2165 202.683C58.1281 202.804 58.9537 203.247 59.5206 203.918Z" fill="#263238"/>
<path d="M95.581 204.63C98.2832 206.117 101.742 212.478 101.472 225.874C101.242 237.183 97.2834 239.995 95.2973 240.869C93.3112 241.744 89.4741 241.207 85.7316 240.644L85.9477 247.517C85.9477 247.517 92.2438 252.278 91.9331 255.39C91.6223 258.501 83.205 259.938 78.4222 256.927C75.2761 254.888 72.3609 252.56 69.7211 249.979C69.6545 249.917 69.6021 249.842 69.5673 249.761C69.5324 249.679 69.5158 249.592 69.5185 249.504V232.384C69.5185 232.384 67.3297 234.359 63.5872 231.36C60.5067 228.86 59.4529 224.699 61.8308 222.45C62.4456 221.924 63.1843 221.537 63.9884 221.321C64.7925 221.104 65.6401 221.063 66.4643 221.201C67.2884 221.339 68.0665 221.653 68.7373 222.117C69.408 222.581 69.953 223.182 70.3291 223.874C70.3291 223.874 76.2739 224.049 84.1778 219.988C87.2505 218.438 89.8845 216.239 91.8658 213.571C93.8472 210.902 95.1201 207.839 95.581 204.63Z" fill="#FFA8A7"/>
<path d="M87.7988 223.025C87.8263 223.22 87.8101 223.418 87.7511 223.606C87.692 223.795 87.5914 223.97 87.4557 224.121C87.3199 224.272 87.1518 224.395 86.9621 224.483C86.7723 224.571 86.5649 224.622 86.3529 224.633C86.1409 224.643 85.9288 224.613 85.7301 224.544C85.5313 224.475 85.3501 224.368 85.1979 224.231C85.0457 224.095 84.9257 223.93 84.8455 223.748C84.7653 223.566 84.7266 223.371 84.7318 223.175C84.7042 222.98 84.7205 222.782 84.7795 222.594C84.8385 222.405 84.9391 222.23 85.0749 222.079C85.2107 221.928 85.3787 221.805 85.5685 221.717C85.7583 221.629 85.9657 221.578 86.1777 221.567C86.3897 221.557 86.6017 221.587 86.8005 221.656C86.9992 221.725 87.1804 221.832 87.3326 221.969C87.4849 222.105 87.6049 222.27 87.6851 222.452C87.7653 222.634 87.804 222.829 87.7988 223.025Z" fill="#263238"/>
<path d="M88.2581 232.622L91.825 233.659C91.763 233.881 91.6531 234.088 91.5018 234.269C91.3505 234.45 91.1611 234.6 90.9451 234.711C90.729 234.822 90.4908 234.891 90.2449 234.915C89.999 234.938 89.7505 234.915 89.5146 234.846C89.0332 234.7 88.6326 234.386 88.3979 233.97C88.1633 233.555 88.1131 233.071 88.2581 232.622Z" fill="#F28F8F"/>
<path d="M100.391 218.614L97.2695 216.639C97.3984 216.445 97.5689 216.276 97.7707 216.144C97.9726 216.013 98.2014 215.921 98.4431 215.874C98.6848 215.827 98.9343 215.827 99.1763 215.872C99.4183 215.918 99.6476 216.009 99.8501 216.14C100.265 216.41 100.552 216.817 100.653 217.277C100.753 217.737 100.659 218.216 100.391 218.614Z" fill="#263238"/>
<path d="M99.6887 221.95C99.6936 222.23 99.6094 222.504 99.4468 222.74C99.2841 222.976 99.0501 223.162 98.7739 223.275C98.4977 223.389 98.1915 223.424 97.8934 223.378C97.5954 223.332 97.3187 223.205 97.0977 223.015C96.8768 222.824 96.7214 222.577 96.6509 222.306C96.5804 222.034 96.5979 221.749 96.7013 221.486C96.8047 221.223 96.9893 220.995 97.2322 220.828C97.4751 220.662 97.7656 220.565 98.0674 220.551C98.2732 220.544 98.4785 220.575 98.6714 220.642C98.8643 220.708 99.0411 220.81 99.1917 220.94C99.3423 221.07 99.4637 221.226 99.5489 221.399C99.6342 221.573 99.6817 221.76 99.6887 221.95Z" fill="#263238"/>
<path d="M92.7573 220.463L92.7168 229.736L97.5807 228.311L92.7573 220.463Z" fill="#F28F8F"/>
<path d="M85.7321 240.532C81.8004 240.07 73.7074 237.958 72.4238 234.996C72.9382 236.486 73.933 237.794 75.2746 238.745C77.7066 240.657 85.8131 242.806 85.8131 242.806L85.7321 240.532Z" fill="#F28F8F"/>
<path d="M94.9059 221.9C94.7055 221.683 94.4538 221.512 94.1704 221.399C93.8869 221.286 93.5792 221.235 93.2711 221.25C92.3009 221.571 91.4229 222.092 90.7041 222.775L89.7988 221.65C90.6844 220.754 91.8516 220.138 93.136 219.888C94.0023 219.789 94.8767 219.999 95.5815 220.476L94.9059 221.9Z" fill="#263238"/>
<path d="M91.1093 219.139C89.6501 216.952 87.8127 216.327 83.327 216.302C78.8414 216.277 76.4095 217.302 75.2205 219.914C74.8876 220.925 74.7938 221.991 74.9454 223.039C75.0971 224.086 75.4906 225.092 76.0993 225.987C76.7079 226.882 77.5176 227.645 78.4733 228.225C79.429 228.805 80.5083 229.188 81.6382 229.348C87.7181 230.185 90.3797 226.512 91.0958 224.25C91.7038 222.338 91.8659 220.276 91.1093 219.139Z" fill="#F5CB99"/>
<path d="M82.3407 228.111H81.8814C80.9184 228.004 79.996 227.69 79.1887 227.192C78.3813 226.695 77.7116 226.03 77.2336 225.249C76.7644 224.526 76.4611 223.721 76.3425 222.885C76.224 222.049 76.2928 221.199 76.5445 220.388C77.2876 218.676 78.7198 217.552 83.3 217.577C84.2998 217.577 85.124 217.577 85.813 217.689C88.2585 217.926 89.1097 218.589 89.8663 219.813C90.1999 220.849 90.2496 221.945 90.0111 223.002C89.7726 224.06 89.2533 225.046 88.5 225.871C87.7467 226.697 86.7831 227.336 85.6961 227.732C84.609 228.127 83.4327 228.266 82.2732 228.136L82.3407 228.111Z" fill="#263238"/>
<path d="M94.743 219.613C94.9322 217.577 97.3101 215.29 101.147 214.877C104.214 214.552 107.051 216.289 107.105 218.876C107.187 222.05 106.2 225.762 101.701 226.449C97.7965 227.049 94.081 224.574 94.743 219.613Z" fill="#F5CB99"/>
<path d="M100.054 225.237C99.4811 225.188 98.9247 225.035 98.4167 224.787C97.9088 224.538 97.4594 224.198 97.0946 223.787C96.6578 223.21 96.3492 222.558 96.1868 221.869C96.0245 221.181 96.0116 220.469 96.1489 219.776C96.2975 218.214 98.2701 216.464 101.337 216.139C101.71 216.102 102.086 216.102 102.458 216.139C103.282 216.15 104.074 216.437 104.686 216.947C105.297 217.458 105.687 218.157 105.782 218.914C105.863 222.662 104.431 224.749 101.54 225.162C101.05 225.249 100.55 225.274 100.054 225.237Z" fill="#263238"/>
<path opacity="0.1" d="M75.4366 313.435C73.8431 313.099 72.3382 312.473 71.0105 311.591C69.6829 310.71 68.5592 309.592 67.7056 308.303C66.8521 307.014 66.2859 305.58 66.0404 304.086C65.7949 302.591 65.8751 301.067 66.2762 299.601C66.3321 299.398 66.3998 299.198 66.4789 299.002C66.7703 298.235 67.3232 297.577 68.0543 297.126C68.7853 296.675 69.6549 296.456 70.5321 296.502C69.2269 295.705 68.1058 294.676 67.2337 293.474C66.3617 292.273 65.7561 290.924 65.452 289.505L62.9796 275.921C62.683 273.71 62.8948 271.466 63.6011 269.336L55.4945 260.588L53.9813 261.563C52.7481 265.4 52.8664 269.501 54.3191 273.272L62.4256 294.94C62.4256 294.94 58.629 303.425 54.2245 311.435C60.8403 314.726 68.1416 316.667 75.6366 317.128C83.1317 317.589 90.6467 316.56 97.6755 314.11C90.2831 315.187 82.7368 314.958 75.4366 313.435Z" fill="black"/>
<path d="M33.4445 301.726C43.9965 261.826 51.7923 248.517 64.6142 248.68C68.3567 252.878 67.3298 265.375 61.4121 272.872C61.4121 272.872 48.2254 298.602 46.1177 307.749C44.2668 315.797 42.1726 325.906 42.3077 332.816C42.3462 334.042 42.8703 335.212 43.7804 336.103C46.1853 338.515 46.1988 340.452 47.7526 343.126C48.9685 345.213 50.3061 346 49.9278 346.462C49.4288 346.964 48.7422 347.272 48.0072 347.323C47.2721 347.374 46.5435 347.165 45.9691 346.737C44.8394 345.994 43.8295 345.106 42.9697 344.101C43.3823 346.658 44.1828 349.148 45.3476 351.498C48.0498 357.147 47.4013 360.033 39.1596 358.021C33.9985 356.772 30.7559 352.785 29.9857 341.301C29.5862 337.079 29.523 332.836 29.7966 328.605C30.945 317.721 31.7421 308.149 33.4445 301.726Z" fill="#FFA8A7"/>
</svg>
