<svg width="55" height="55" viewBox="0 0 55 55" fill="none" xmlns="http://www.w3.org/2000/svg">
<path d="M27.5 55C23.7886 55 20.1846 54.2749 16.7954 52.8408C13.519 51.4551 10.5811 49.4678 8.05664 46.9434C5.53223 44.4189 3.54492 41.481 2.15918 38.2046C0.725098 34.8154 0 31.2114 0 27.5C0 26.4312 0.864746 25.5664 1.93359 25.5664C3.00244 25.5664 3.86719 26.4312 3.86719 27.5C3.86719 30.6904 4.49023 33.7842 5.72559 36.7007C6.91797 39.5151 8.62061 42.0449 10.7905 44.2148C12.9604 46.3848 15.4902 48.0928 18.3047 49.2798C21.2158 50.5098 24.3096 51.1328 27.5 51.1328C30.6904 51.1328 33.7842 50.5098 36.7007 49.2744C39.5151 48.082 42.0449 46.3794 44.2148 44.2095C46.3848 42.0395 48.0928 39.5098 49.2798 36.6953C50.5098 33.7842 51.1328 30.6904 51.1328 27.5C51.1328 24.3096 50.5098 21.2158 49.2744 18.2993C48.0861 15.4916 46.3662 12.9401 44.2095 10.7852C42.0569 8.62553 39.5048 6.90527 36.6953 5.72021C33.7842 4.49023 30.6904 3.86719 27.5 3.86719C26.4312 3.86719 25.5664 3.00244 25.5664 1.93359C25.5664 0.864746 26.4312 0 27.5 0C31.2114 0 34.8154 0.725098 38.2046 2.15918C41.481 3.54492 44.4189 5.53223 46.9434 8.05664C49.4678 10.5811 51.4497 13.5244 52.8354 16.7954C54.2695 20.1846 54.9946 23.7886 54.9946 27.5C54.9946 31.2114 54.2695 34.8154 52.8354 38.2046C51.4551 41.481 49.4678 44.4189 46.9434 46.9434C44.4189 49.4678 41.4756 51.4497 38.2046 52.8354C34.8154 54.2749 31.2114 55 27.5 55V55Z" fill="#FF9900"/>
</svg>
