<svg width="65" height="65" viewBox="0 0 65 65" fill="none" xmlns="http://www.w3.org/2000/svg">
<path d="M22.8516 11.6797H22.3438C22.623 11.6797 22.8516 11.4512 22.8516 11.1719V11.6797H42.1484V11.1719C42.1484 11.4512 42.377 11.6797 42.6562 11.6797H42.1484V16.25H46.7188V11.1719C46.7188 8.93115 44.897 7.10938 42.6562 7.10938H22.3438C20.103 7.10938 18.2812 8.93115 18.2812 11.1719V16.25H22.8516V11.6797ZM54.8438 16.25H10.1562C9.03271 16.25 8.125 17.1577 8.125 18.2812V20.3125C8.125 20.5918 8.35352 20.8203 8.63281 20.8203H12.4668L14.0347 54.0186C14.1362 56.1831 15.9263 57.8906 18.0908 57.8906H46.9092C49.0801 57.8906 50.8638 56.1895 50.9653 54.0186L52.5332 20.8203H56.3672C56.6465 20.8203 56.875 20.5918 56.875 20.3125V18.2812C56.875 17.1577 55.9673 16.25 54.8438 16.25ZM46.4204 53.3203H18.5796L17.0435 20.8203H47.9565L46.4204 53.3203Z" fill="#FF9900"/>
</svg>
